<?xml version="1.0" encoding="UTF-8" standalone="no"?>
<!-- Created with Inkscape (http://www.inkscape.org/) -->

<svg
   xmlns:osb="http://www.openswatchbook.org/uri/2009/osb"
   xmlns:dc="http://purl.org/dc/elements/1.1/"
   xmlns:cc="http://creativecommons.org/ns#"
   xmlns:rdf="http://www.w3.org/1999/02/22-rdf-syntax-ns#"
   xmlns:svg="http://www.w3.org/2000/svg"
   xmlns="http://www.w3.org/2000/svg"
   xmlns:sodipodi="http://sodipodi.sourceforge.net/DTD/sodipodi-0.dtd"
   xmlns:inkscape="http://www.inkscape.org/namespaces/inkscape"
   width="353"
   height="141.5"
   viewBox="0 0 93.397912 37.438543"
   version="1.1"
   id="svg8"
   sodipodi:docname="title.svg"
   inkscape:version="0.92.2 (5c3e80d, 2017-08-06)">
  <defs
     id="defs2">
    <linearGradient
       id="Color2_Medium"
       osb:paint="solid">
      <stop
         style="stop-color:#5ae15a;stop-opacity:1;"
         offset="0"
         id="stop5414" />
    </linearGradient>
    <linearGradient
       id="Color1_Medium"
       osb:paint="solid">
      <stop
         style="stop-color:#dc4747;stop-opacity:1;"
         offset="0"
         id="stop5406" />
    </linearGradient>
    <linearGradient
       id="Color0_Medium"
       osb:paint="solid">
      <stop
         style="stop-color:#239fdc;stop-opacity:1;"
         offset="0"
         id="stop5396" />
    </linearGradient>
    <linearGradient
       id="Color2"
       osb:paint="solid"
       gradientTransform="matrix(0.26458333,0,0,0.26458333,0,258.21988)">
      <stop
         style="stop-color:#66ff66;stop-opacity:1;"
         offset="0"
         id="stop4969" />
    </linearGradient>
    <linearGradient
       id="Color1"
       osb:paint="solid"
       gradientTransform="translate(0,72.514908)">
      <stop
         style="stop-color:#f04c4c;stop-opacity:1;"
         offset="0"
         id="stop4963" />
    </linearGradient>
    <linearGradient
       id="Color0"
       osb:paint="solid"
       gradientTransform="translate(0,72.514908)">
      <stop
         style="stop-color:#19b2ff;stop-opacity:1;"
         offset="0"
         id="stop4951" />
    </linearGradient>
  </defs>
  <sodipodi:namedview
     id="base"
     pagecolor="#ffffff"
     bordercolor="#666666"
     borderopacity="1.0"
     inkscape:pageopacity="0.0"
     inkscape:pageshadow="2"
     inkscape:zoom="2.8284271"
     inkscape:cx="152.20355"
     inkscape:cy="58.168393"
     inkscape:document-units="px"
     inkscape:current-layer="layer-fillings"
     showgrid="false"
     units="px"
     inkscape:showpageshadow="false"
     inkscape:pagecheckerboard="true"
     showguides="false"
     inkscape:measure-start="164.402,77.4282"
     inkscape:measure-end="170.501,77.4282"
     fit-margin-top="0"
     fit-margin-left="0"
     fit-margin-right="0"
     fit-margin-bottom="0" />
  <metadata
     id="metadata5">
    <rdf:RDF>
      <cc:Work
         rdf:about="">
        <dc:format>image/svg+xml</dc:format>
        <dc:type
           rdf:resource="http://purl.org/dc/dcmitype/StillImage" />
        <dc:title />
      </cc:Work>
    </rdf:RDF>
  </metadata>
  <g
     inkscape:groupmode="layer"
     id="layer-backup"
     inkscape:label="Backup"
     sodipodi:insensitive="true"
     style="display:none">
    <g
       id="g5560"
       transform="translate(-97.631252,-316.30077)">
      <path
         sodipodi:nodetypes="ccccc"
         inkscape:connector-curvature="0"
         id="rect5146-2"
         d="m 69.744166,316.30078 h 22.595419 v 37.43854 H 21.960417 Z"
         style="fill:#000000;fill-opacity:1;stroke:none;stroke-width:0.48911816;stroke-miterlimit:4;stroke-dasharray:none;stroke-dashoffset:0;stroke-opacity:1" />
      <path
         sodipodi:nodetypes="ccccc"
         inkscape:connector-curvature="0"
         id="rect5144-7"
         d="M -1.0583333,316.30078 H 69.744166 L 21.960417,353.73932 H -1.0583333 Z"
         style="fill:#ffffff;fill-opacity:1;stroke:none;stroke-width:0.48911816;stroke-miterlimit:4;stroke-dasharray:none;stroke-dashoffset:0;stroke-opacity:1" />
      <text
         id="text5069-7"
         y="350.6965"
         x="0.52916378"
         style="font-style:italic;font-variant:normal;font-weight:bold;font-stretch:normal;font-size:5.64444447px;line-height:1.25;font-family:sans-serif;-inkscape-font-specification:'sans-serif Bold Italic';letter-spacing:0px;word-spacing:0px;opacity:1;fill:none;fill-opacity:1;stroke:#ff0000;stroke-width:0.26458332;stroke-miterlimit:4;stroke-dasharray:none;stroke-opacity:1"
         xml:space="preserve"><tspan
           dx="0 0 0 0 0 1.15"
           style="font-style:italic;font-variant:normal;font-weight:bold;font-stretch:normal;font-size:19.75555611px;font-family:sans-serif;-inkscape-font-specification:'sans-serif Bold Italic';fill:none;fill-opacity:1;stroke:#ff0000;stroke-width:0.79374999;stroke-miterlimit:4;stroke-dasharray:none;stroke-opacity:1"
           y="350.6965"
           x="0.52916378"
           id="tspan5067-4"
           sodipodi:role="line">Colorful</tspan></text>
      <text
         xml:space="preserve"
         style="font-style:italic;font-variant:normal;font-weight:bold;font-stretch:normal;font-size:5.64444447px;line-height:1.25;font-family:sans-serif;-inkscape-font-specification:'sans-serif Bold Italic';letter-spacing:0px;word-spacing:0px;fill:none;fill-opacity:1;stroke:#ff0000;stroke-width:0.26458332;stroke-opacity:1"
         x="20.868162"
         y="333.76205"
         id="text5073-4"><tspan
           dx="0 0 0 -0.75"
           sodipodi:role="line"
           id="tspan5071-6"
           x="20.868162"
           y="333.76205"
           style="font-style:italic;font-variant:normal;font-weight:bold;font-stretch:normal;font-size:19.75555611px;font-family:sans-serif;-inkscape-font-specification:'sans-serif Bold Italic';fill:none;stroke:#ff0000;stroke-width:0.79374999;stroke-miterlimit:4;stroke-dasharray:none;stroke-opacity:1">Stay</tspan></text>
    </g>
  </g>
  <g
     inkscape:label="Background"
     inkscape:groupmode="layer"
     id="layer-background"
     transform="translate(0,-259.56143)"
     sodipodi:insensitive="true"
     style="display:inline">
    <path
       style="fill:#ffffff;fill-opacity:1;stroke:none;stroke-width:0.48911816;stroke-miterlimit:4;stroke-dasharray:none;stroke-dashoffset:0;stroke-opacity:1"
       d="M 0,259.56143 H 70.802499 L 23.01875,296.99997 H 0 Z"
       id="background-white"
       inkscape:connector-curvature="0"
       sodipodi:nodetypes="ccccc" />
    <path
       style="fill:#000000;fill-opacity:1;stroke:none;stroke-width:0.48911816;stroke-miterlimit:4;stroke-dasharray:none;stroke-dashoffset:0;stroke-opacity:1"
       d="m 70.802499,259.56143 h 22.59542 v 37.43854 H 23.01875 Z"
       id="background-black"
       inkscape:connector-curvature="0"
       sodipodi:nodetypes="ccccc" />
  </g>
  <g
     inkscape:groupmode="layer"
     id="layer-fillings"
     inkscape:label="Fillings"
     style="display:inline">
    <path
       transform="translate(0,-259.56143)"
       inkscape:connector-curvature="0"
       id="filling-_s_tay"
       style="font-style:italic;font-variant:normal;font-weight:bold;font-stretch:normal;font-size:19.75555611px;line-height:1.25;font-family:sans-serif;-inkscape-font-specification:'sans-serif Bold Italic';letter-spacing:0px;word-spacing:0px;fill:url(#Color0);fill-opacity:1;stroke:none;stroke-width:0.79374999;stroke-miterlimit:4;stroke-dasharray:none;stroke-opacity:1"
       d="m 27.772133,277.28315 q -1.842437,0 -3.289377,-0.31832 -1.437294,-0.31833 -2.488738,-0.791 l 0.742763,-3.44371 h 0.405143 q 0.993566,0.90675 2.334397,1.40835 1.340831,0.49196 2.884234,0.49196 1.581988,0 2.324751,-0.42444 0.742762,-0.43408 0.742762,-1.23472 0,-0.29903 -0.125401,-0.51125 -0.115755,-0.22186 -0.463021,-0.43408 -0.347266,-0.21222 -0.954981,-0.41479 -0.598068,-0.21222 -1.553049,-0.48231 -1.051443,-0.28939 -1.890668,-0.62701 -0.829579,-0.33762 -1.418001,-0.80064 -0.588423,-0.47267 -0.897103,-1.09003 -0.299035,-0.61736 -0.299035,-1.47588 0,-2.16076 1.900315,-3.44372 1.909961,-1.2926 5.218631,-1.2926 1.591634,0 2.999989,0.26045 1.418001,0.26045 2.401921,0.70418 l -0.704178,3.30867 H 35.24799 q -0.752409,-0.69453 -1.987131,-1.15755 -1.225076,-0.47267 -2.681662,-0.47267 -1.427648,0 -2.208996,0.41479 -0.781347,0.41479 -0.781347,1.14791 0,0.33762 0.115755,0.55948 0.115755,0.22186 0.472667,0.43408 0.308681,0.19293 0.974273,0.42444 0.665593,0.22186 1.562695,0.46302 2.411567,0.6463 3.443718,1.51446 1.032151,0.86817 1.032151,2.35369 0,1.24437 -0.559484,2.1897 -0.559483,0.94534 -1.543403,1.53376 -1.03215,0.62701 -2.344043,0.9164 -1.311892,0.28938 -2.97105,0.28938 z" />
    <path
       transform="translate(0,-259.56143)"
       inkscape:connector-curvature="0"
       id="filling-s_t_ay"
       style="font-style:italic;font-variant:normal;font-weight:bold;font-stretch:normal;font-size:19.75555611px;line-height:1.25;font-family:sans-serif;-inkscape-font-specification:'sans-serif Bold Italic';letter-spacing:0px;word-spacing:0px;fill:url(#Color2);fill-opacity:1;stroke:none;stroke-width:0.79374999;stroke-miterlimit:4;stroke-dasharray:none;stroke-opacity:1"
       d="m 40.514852,277.23492 q -1.803852,0 -2.575553,-0.58842 -0.771701,-0.59807 -0.771701,-1.76527 0,-0.30868 0.04823,-0.59806 0.04823,-0.28939 0.125401,-0.67524 l 1.176845,-5.13182 h -1.427648 l 0.530545,-2.28616 h 1.427648 l 0.713824,-3.09646 h 3.482302 l -0.713824,3.09646 h 3.260439 l -0.530545,2.28616 h -3.260438 l -0.897103,3.90674 q -0.09646,0.40514 -0.183279,0.81993 -0.08682,0.40515 -0.08682,0.69453 0,0.57878 0.318327,0.81029 0.327973,0.22187 1.003212,0.22187 0.270095,0 0.704177,-0.0965 0.443729,-0.10611 0.704178,-0.23151 h 0.289388 l -0.540191,2.32475 q -0.588422,0.1447 -1.244369,0.22187 -0.646299,0.0868 -1.553049,0.0868 z" />
    <path
       transform="translate(0,-259.56143)"
       d="m 53.093584,271.91018 q -0.926042,0.0772 -1.736328,0.18328 -0.810286,0.10611 -1.379416,0.30868 -0.588423,0.21222 -0.897103,0.59807 -0.308681,0.38585 -0.308681,1.02251 0,0.55948 0.405144,0.79099 0.414789,0.22186 1.196137,0.22186 0.511252,0 1.090028,-0.23151 0.588422,-0.24115 1.099674,-0.60771 z m -0.916395,3.96462 q -0.327973,0.21222 -0.790994,0.51125 -0.463021,0.29904 -0.858518,0.47267 -0.540191,0.22186 -1.012858,0.33762 -0.472667,0.11575 -1.311893,0.11575 -1.350477,0 -2.208995,-0.75241 -0.848871,-0.76205 -0.848871,-1.97748 0,-1.28295 0.607714,-2.17041 0.607715,-0.8971 1.803853,-1.42765 1.118967,-0.5016 2.662369,-0.72347 1.553049,-0.22186 3.356902,-0.32797 0.0096,-0.0579 0.03858,-0.18328 0.02894,-0.13505 0.02894,-0.29904 0,-0.68488 -0.636653,-0.95498 -0.636654,-0.27974 -1.900315,-0.27974 -0.858518,0 -1.900315,0.28939 -1.03215,0.28939 -1.553049,0.48231 h -0.318327 l 0.511253,-2.5659 q 0.607714,-0.15434 1.881022,-0.34727 1.273307,-0.19292 2.536968,-0.19292 2.546615,0 3.733106,0.66559 1.196137,0.66559 1.196137,2.0643 0,0.19293 -0.03858,0.50161 -0.02894,0.30868 -0.08682,0.54019 l -1.697743,7.36975 H 51.91674 Z"
       style="font-style:italic;font-variant:normal;font-weight:bold;font-stretch:normal;font-size:19.75555611px;line-height:1.25;font-family:sans-serif;-inkscape-font-specification:'sans-serif Bold Italic';letter-spacing:0px;word-spacing:0px;fill:url(#Color1);fill-opacity:1;stroke:none;stroke-width:0.79374999;stroke-miterlimit:4;stroke-dasharray:none;stroke-opacity:1"
       id="filling-st_a_y"
       inkscape:connector-curvature="0" />
    <path
       transform="translate(0,-259.56143)"
       d="m 61.787281,280.99697 h -3.810276 l 2.758832,-4.18648 -1.784559,-10.62054 h 3.549826 l 0.935688,7.09965 4.128603,-7.09965 h 3.665582 z"
       style="font-style:italic;font-variant:normal;font-weight:bold;font-stretch:normal;font-size:19.75555611px;line-height:1.25;font-family:sans-serif;-inkscape-font-specification:'sans-serif Bold Italic';letter-spacing:0px;word-spacing:0px;fill:url(#Color0_Medium);fill-opacity:1;stroke:none;stroke-width:0.79374999;stroke-miterlimit:4;stroke-dasharray:none;stroke-opacity:1"
       id="filling-sta_y_"
       inkscape:connector-curvature="0" />
    <path
       transform="translate(0,-259.56143)"
       inkscape:connector-curvature="0"
       id="filling-_c_olorful"
       style="font-style:italic;font-variant:normal;font-weight:bold;font-stretch:normal;font-size:19.75555611px;line-height:1.25;font-family:sans-serif;-inkscape-font-specification:'sans-serif Bold Italic';letter-spacing:0px;word-spacing:0px;fill:url(#Color1);fill-opacity:1;stroke:none;stroke-width:0.79374999;stroke-miterlimit:4;stroke-dasharray:none;stroke-opacity:1"
       d="m 8.8029053,294.2369 q -2.9131728,0 -4.4951607,-1.42765 -1.5819879,-1.4373 -1.5819879,-4.10931 0,-2.11254 0.6945313,-3.82957 0.7041775,-1.71704 1.9292535,-2.97105 1.1961372,-1.21543 2.8649415,-1.90032 1.6784505,-0.68488 3.520888,-0.68488 1.485525,0 2.758832,0.30868 1.273308,0.29903 2.295812,0.88746 l -0.848872,3.4823 h -0.424435 q -0.916396,-0.98392 -1.823145,-1.44694 -0.906749,-0.46302 -2.131825,-0.46302 -2.1511178,0 -3.5498266,1.72668 -1.3890626,1.72668 -1.3890626,4.3987 0,1.71703 0.7717014,2.48873 0.7717014,0.77171 2.2572267,0.77171 1.3311851,0 2.4983831,-0.53055 1.167199,-0.54019 2.208995,-1.36977 h 0.385851 l -0.839225,3.43407 q -0.434082,0.17364 -1.012858,0.42444 -0.578776,0.24116 -1.109321,0.3955 -0.694531,0.20257 -1.302246,0.30868 -0.5980687,0.10611 -1.6784507,0.10611 z" />
    <path
       transform="translate(0,-259.56143)"
       inkscape:connector-curvature="0"
       id="filling-c_o_lorful"
       style="font-style:italic;font-variant:normal;font-weight:bold;font-stretch:normal;font-size:19.75555611px;line-height:1.25;font-family:sans-serif;-inkscape-font-specification:'sans-serif Bold Italic';letter-spacing:0px;word-spacing:0px;fill:url(#Color2);fill-opacity:1;stroke:none;stroke-width:0.79374999;stroke-miterlimit:4;stroke-dasharray:none;stroke-opacity:1"
       d="m 28.780326,287.08901 q 0,1.52411 -0.511252,2.8553 -0.511252,1.33118 -1.437294,2.28616 -0.964627,0.99357 -2.237934,1.53376 -1.273308,0.53054 -2.971051,0.53054 -2.421213,0 -3.713813,-1.15755 -1.2926,-1.15755 -1.2926,-3.20256 0,-1.44694 0.482314,-2.74919 0.482313,-1.30224 1.427647,-2.29581 0.916396,-0.97427 2.247581,-1.53375 1.340831,-0.56913 2.999989,-0.56913 2.43086,0 3.713813,1.1479 1.2926,1.13826 1.2926,3.15433 z m -4.514453,3.54983 q 0.443728,-0.67524 0.665592,-1.47588 0.231511,-0.80064 0.231511,-1.94855 0,-0.99356 -0.434082,-1.52411 -0.434082,-0.54019 -1.379417,-0.54019 -0.733116,0 -1.2926,0.35691 -0.549837,0.35691 -0.974273,1.01286 -0.395497,0.60772 -0.627007,1.50482 -0.221864,0.8971 -0.221864,1.84244 0,1.10932 0.491959,1.59163 0.49196,0.47267 1.350478,0.47267 0.627007,0 1.205783,-0.33762 0.578776,-0.34727 0.98392,-0.95498 z" />
    <path
       transform="translate(0,-259.56143)"
       d="m 36.796374,278.94756 -3.472656,15.00959 h -3.491949 l 3.472656,-15.00959 z"
       style="font-style:italic;font-variant:normal;font-weight:bold;font-stretch:normal;font-size:19.75555611px;line-height:1.25;font-family:sans-serif;-inkscape-font-specification:'sans-serif Bold Italic';letter-spacing:0px;word-spacing:0px;fill:url(#Color1);fill-opacity:1;stroke:none;stroke-width:0.79374999;stroke-miterlimit:4;stroke-dasharray:none;stroke-opacity:1"
       id="filling-co_l_orful"
       inkscape:connector-curvature="0" />
    <path
       transform="translate(0,-259.56143)"
       inkscape:connector-curvature="0"
       id="filling-col_o_rful"
       style="font-style:italic;font-variant:normal;font-weight:bold;font-stretch:normal;font-size:19.75555611px;line-height:1.25;font-family:sans-serif;-inkscape-font-specification:'sans-serif Bold Italic';letter-spacing:0px;word-spacing:0px;fill:url(#Color0_Medium);fill-opacity:1;stroke:none;stroke-width:0.79374999;stroke-miterlimit:4;stroke-dasharray:none;stroke-opacity:1"
       d="m 49.076074,287.08901 q 0,1.52411 -0.511252,2.8553 -0.511253,1.33118 -1.437294,2.28616 -0.964627,0.99357 -2.237934,1.53376 -1.273308,0.53054 -2.971051,0.53054 -2.421213,0 -3.713813,-1.15755 -1.2926,-1.15755 -1.2926,-3.20256 0,-1.44694 0.482314,-2.74919 0.482313,-1.30224 1.427647,-2.29581 0.916396,-0.97427 2.247581,-1.53375 1.340831,-0.56913 2.999989,-0.56913 2.430859,0 3.713813,1.1479 1.2926,1.13826 1.2926,3.15433 z m -4.514454,3.54983 q 0.443729,-0.67524 0.665593,-1.47588 0.23151,-0.80064 0.23151,-1.94855 0,-0.99356 -0.434082,-1.52411 -0.434082,-0.54019 -1.379416,-0.54019 -0.733116,0 -1.2926,0.35691 -0.549837,0.35691 -0.974273,1.01286 -0.395497,0.60772 -0.627007,1.50482 -0.221864,0.8971 -0.221864,1.84244 0,1.10932 0.491959,1.59163 0.49196,0.47267 1.350478,0.47267 0.627007,0 1.205783,-0.33762 0.578776,-0.34727 0.983919,-0.95498 z" />
    <path
       transform="translate(0,-259.56143)"
       inkscape:connector-curvature="0"
       id="filling-colo_r_ful"
       style="font-style:italic;font-variant:normal;font-weight:bold;font-stretch:normal;font-size:19.75555611px;line-height:1.25;font-family:sans-serif;-inkscape-font-specification:'sans-serif Bold Italic';letter-spacing:0px;word-spacing:0px;fill:url(#Color2_Medium);fill-opacity:1;stroke:none;stroke-width:0.79374999;stroke-miterlimit:4;stroke-dasharray:none;stroke-opacity:1"
       d="m 59.735198,286.43306 h -0.308681 q -0.23151,-0.0772 -0.655946,-0.11575 -0.424436,-0.0386 -0.839225,-0.0386 -0.684885,0 -1.321539,0.10611 -0.636654,0.0965 -1.311893,0.31833 l -1.67845,7.25399 h -3.491949 l 2.50803,-10.83276 h 3.491948 l -0.366558,1.59164 q 0.98392,-0.72347 1.958193,-1.17685 0.983919,-0.45337 1.977484,-0.45337 0.18328,0 0.405144,0.01 0.23151,0.01 0.405143,0.0289 z" />
    <path
       transform="translate(0,-259.56143)"
       inkscape:connector-curvature="0"
       id="filling-color_f_ul"
       style="font-style:italic;font-variant:normal;font-weight:bold;font-stretch:normal;font-size:19.75555611px;line-height:1.25;font-family:sans-serif;-inkscape-font-specification:'sans-serif Bold Italic';letter-spacing:0px;word-spacing:0px;fill:url(#Color1_Medium);fill-opacity:1;stroke:none;stroke-width:0.79374999;stroke-miterlimit:4;stroke-dasharray:none;stroke-opacity:1"
       d="m 67.251734,283.12439 h 2.681663 l -0.520899,2.28617 h -2.565907 l -1.977485,8.54659 h -3.491949 l 1.977485,-8.54659 h -1.485525 l 0.520898,-2.28617 h 1.485526 l 0.06752,-0.27974 q 0.443729,-1.95819 1.620573,-2.97105 1.176845,-1.0225 3.482303,-1.0225 0.848872,0 1.475879,0.0579 0.627007,0.0482 1.080382,0.13504 l -0.56913,2.45016 h -0.260449 q -0.221864,-0.0772 -0.636654,-0.15434 -0.405143,-0.0868 -0.752409,-0.0868 -0.964626,0 -1.408355,0.3762 -0.434082,0.37621 -0.704177,1.418 z" />
    <path
       transform="translate(0,-259.56143)"
       inkscape:connector-curvature="0"
       id="filling-colorf_u_l"
       style="font-style:italic;font-variant:normal;font-weight:bold;font-stretch:normal;font-size:19.75555611px;line-height:1.25;font-family:sans-serif;-inkscape-font-specification:'sans-serif Bold Italic';letter-spacing:0px;word-spacing:0px;fill:url(#Color0_Medium);fill-opacity:1;stroke:none;stroke-width:0.79374999;stroke-miterlimit:4;stroke-dasharray:none;stroke-opacity:1"
       d="m 82.762935,283.12439 -2.50803,10.83276 h -3.491949 l 0.279742,-1.19613 q -0.520899,0.33762 -1.022504,0.63665 -0.49196,0.28939 -0.935688,0.46302 -0.559484,0.23151 -1.022505,0.30868 -0.463021,0.0868 -0.916395,0.0868 -1.427648,0 -2.257227,-0.68489 -0.819933,-0.68488 -0.819933,-2.02571 0,-0.36656 0.03859,-0.67524 0.03859,-0.31833 0.125402,-0.69453 l 1.630219,-7.05143 h 3.511242 l -1.244369,5.37298 q -0.144694,0.61736 -0.221864,1.06109 -0.06752,0.44372 -0.06752,0.7524 0,0.63666 0.308681,0.92605 0.30868,0.27974 1.167198,0.27974 0.424436,0 0.974273,-0.18328 0.559484,-0.18328 1.205783,-0.53055 l 1.774914,-7.67843 z" />
    <path
       transform="translate(0,-259.56143)"
       inkscape:connector-curvature="0"
       id="filling-colorfu_l_"
       style="font-style:italic;font-variant:normal;font-weight:bold;font-stretch:normal;font-size:19.75555611px;line-height:1.25;font-family:sans-serif;-inkscape-font-specification:'sans-serif Bold Italic';letter-spacing:0px;word-spacing:0px;fill:url(#Color2_Medium);fill-opacity:1;stroke:none;stroke-width:0.79374999;stroke-miterlimit:4;stroke-dasharray:none;stroke-opacity:1"
       d="m 90.49924,278.94756 -3.472656,15.00959 h -3.491949 l 3.472656,-15.00959 z" />
  </g>
  <g
     inkscape:groupmode="layer"
     id="layer-outlines"
     inkscape:label="Outlines"
     sodipodi:insensitive="true"
     style="display:inline">
    <g
       id="outlines-stay">
      <path
         inkscape:connector-curvature="0"
         id="outline-_s_tay"
         style="font-style:italic;font-variant:normal;font-weight:bold;font-stretch:normal;font-size:19.75555611px;line-height:1.25;font-family:sans-serif;-inkscape-font-specification:'sans-serif Bold Italic';letter-spacing:0px;word-spacing:0px;fill:none;fill-opacity:1;stroke:#000000;stroke-width:0.79374999;stroke-miterlimit:4;stroke-dasharray:none;stroke-opacity:1"
         d="m 27.772133,277.28315 q -1.842437,0 -3.289377,-0.31832 -1.437294,-0.31833 -2.488738,-0.791 l 0.742763,-3.44371 h 0.405143 q 0.993566,0.90675 2.334397,1.40835 1.340831,0.49196 2.884234,0.49196 1.581988,0 2.324751,-0.42444 0.742762,-0.43408 0.742762,-1.23472 0,-0.29903 -0.125401,-0.51125 -0.115755,-0.22186 -0.463021,-0.43408 -0.347266,-0.21222 -0.954981,-0.41479 -0.598068,-0.21222 -1.553049,-0.48231 -1.051443,-0.28939 -1.890668,-0.62701 -0.829579,-0.33762 -1.418001,-0.80064 -0.588423,-0.47267 -0.897103,-1.09003 -0.299035,-0.61736 -0.299035,-1.47588 0,-2.16076 1.900315,-3.44372 1.909961,-1.2926 5.218631,-1.2926 1.591634,0 2.999989,0.26045 1.418001,0.26045 2.401921,0.70418 l -0.704178,3.30867 H 35.24799 q -0.752409,-0.69453 -1.987131,-1.15755 -1.225076,-0.47267 -2.681662,-0.47267 -1.427648,0 -2.208996,0.41479 -0.781347,0.41479 -0.781347,1.14791 0,0.33762 0.115755,0.55948 0.115755,0.22186 0.472667,0.43408 0.308681,0.19293 0.974273,0.42444 0.665593,0.22186 1.562695,0.46302 2.411567,0.6463 3.443718,1.51446 1.032151,0.86817 1.032151,2.35369 0,1.24437 -0.559484,2.1897 -0.559483,0.94534 -1.543403,1.53376 -1.03215,0.62701 -2.344043,0.9164 -1.311892,0.28938 -2.97105,0.28938 z"
         transform="translate(0,-259.56143)" />
      <path
         inkscape:connector-curvature="0"
         id="outline-s_t_ay"
         style="font-style:italic;font-variant:normal;font-weight:bold;font-stretch:normal;font-size:19.75555611px;line-height:1.25;font-family:sans-serif;-inkscape-font-specification:'sans-serif Bold Italic';letter-spacing:0px;word-spacing:0px;fill:none;fill-opacity:1;stroke:#000000;stroke-width:0.79374999;stroke-miterlimit:4;stroke-dasharray:none;stroke-opacity:1"
         d="m 40.514852,277.23492 q -1.803852,0 -2.575553,-0.58842 -0.771701,-0.59807 -0.771701,-1.76527 0,-0.30868 0.04823,-0.59806 0.04823,-0.28939 0.125401,-0.67524 l 1.176845,-5.13182 h -1.427648 l 0.530545,-2.28616 h 1.427648 l 0.713824,-3.09646 h 3.482302 l -0.713824,3.09646 h 3.260439 l -0.530545,2.28616 h -3.260438 l -0.897103,3.90674 q -0.09646,0.40514 -0.183279,0.81993 -0.08682,0.40515 -0.08682,0.69453 0,0.57878 0.318327,0.81029 0.327973,0.22187 1.003212,0.22187 0.270095,0 0.704177,-0.0965 0.443729,-0.10611 0.704178,-0.23151 h 0.289388 l -0.540191,2.32475 q -0.588422,0.1447 -1.244369,0.22187 -0.646299,0.0868 -1.553049,0.0868 z"
         transform="translate(0,-259.56143)" />
      <g
         id="outline-st_a_y"
         transform="translate(0,-259.56143)">
        <path
           style="color:#000000;font-style:italic;font-variant:normal;font-weight:bold;font-stretch:normal;font-size:19.75555611px;line-height:1.25;font-family:sans-serif;-inkscape-font-specification:'sans-serif Bold Italic';font-variant-ligatures:normal;font-variant-position:normal;font-variant-caps:normal;font-variant-numeric:normal;font-variant-alternates:normal;font-feature-settings:normal;text-indent:0;text-align:start;text-decoration:none;text-decoration-line:none;text-decoration-style:solid;text-decoration-color:#000000;letter-spacing:0px;word-spacing:0px;text-transform:none;writing-mode:lr-tb;direction:ltr;text-orientation:mixed;dominant-baseline:auto;baseline-shift:baseline;text-anchor:start;white-space:normal;shape-padding:0;clip-rule:nonzero;display:inline;overflow:visible;visibility:visible;opacity:1;isolation:auto;mix-blend-mode:normal;color-interpolation:sRGB;color-interpolation-filters:linearRGB;solid-color:#000000;solid-opacity:1;vector-effect:none;fill:#000000;fill-opacity:1;fill-rule:nonzero;stroke:none;stroke-width:0.79374999;stroke-linecap:butt;stroke-linejoin:miter;stroke-miterlimit:4;stroke-dasharray:none;stroke-dashoffset:0;stroke-opacity:1;color-rendering:auto;image-rendering:auto;shape-rendering:auto;text-rendering:auto;enable-background:accumulate"
           d="m 52.263992,265.48408 -5.16e-4,5.2e-4 c -0.862637,0 -1.72761,0.0653 -2.595708,0.19689 -0.855123,0.12957 -1.488781,0.24607 -1.91978,0.35553 l -0.242361,0.0605 -0.654224,3.28714 h 0.873331 l 0.06615,-0.0253 c 0.327816,-0.12141 0.839134,-0.2809 1.521873,-0.47233 0.667443,-0.18539 1.26697,-0.27388 1.794721,-0.27388 0.813155,0 1.404043,0.0989 1.739945,0.2465 h 0.0021 l 0.0021,0.002 c 0.313407,0.13297 0.394806,0.25602 0.394806,0.58963 0,0.0469 -0.0057,0.0787 -0.0098,0.11731 -1.08503,0.0713 -2.124139,0.16296 -3.074231,0.29869 -1.057256,0.15198 -1.979591,0.40064 -2.767787,0.75396 -0.848779,0.37676 -1.516592,0.89967 -1.968874,1.56631 -0.455514,0.6652 -0.677478,1.47673 -0.677478,2.39468 0,0.90269 0.336338,1.69515 0.980302,2.27325 l 0.0021,0.002 h 0.0021 c 0.530487,0.46493 1.193782,0.73485 1.948718,0.81959 l 0.986504,-0.77308 c -0.143537,0.007 -0.295281,0.0124 -0.464572,0.0124 -0.824872,0 -1.449271,-0.22035 -1.943552,-0.65216 -0.487862,-0.43796 -0.718817,-0.96417 -0.718817,-1.68207 0,-0.79262 0.184213,-1.42702 0.538985,-1.9451 v -0.002 h 0.0021 c 0.357709,-0.52805 0.89063,-0.95708 1.635043,-1.28726 l 0.0021,-0.002 c 0.703757,-0.31547 1.555821,-0.54759 2.556433,-0.69143 1.02284,-0.14612 2.131298,-0.25642 3.324344,-0.3266 l 0.316259,-0.0176 0.05064,-0.31212 c 0.0034,-0.0206 0.01667,-0.0803 0.03514,-0.1602 v -0.002 -0.004 c 0.02619,-0.12221 0.03928,-0.24819 0.03928,-0.38086 0,-0.57857 -0.343056,-1.0905 -0.876948,-1.31826 -0.512797,-0.22493 -1.185804,-0.31471 -2.056723,-0.31471 -0.616937,0 -1.28601,0.10444 -2.007629,0.30489 -0.554,0.15533 -0.922284,0.27562 -1.266073,0.39274 l 0.347784,-1.7539 c 0.384349,-0.0881 0.871945,-0.18391 1.605587,-0.29507 0.829643,-0.1257 1.65409,-0.18965 2.476333,-0.18965 1.663168,0 2.853991,0.23101 3.539318,0.61546 l 0.0021,0.002 c 0.694206,0.38629 0.992187,0.89787 0.992187,1.71721 0,0.10216 -0.01068,0.25751 -0.03514,0.4532 l -0.0021,0.006 v 0.006 c -0.01786,0.19049 -0.04419,0.35142 -0.07648,0.48059 l -0.0016,0.004 -0.299207,1.29862 0.994773,-0.77928 0.07596,-0.33021 0.0021,-0.008 c 0.04306,-0.17412 0.07308,-0.36732 0.09353,-0.58032 0.02698,-0.21589 0.04134,-0.39581 0.04134,-0.55088 0,-1.04461 -0.499867,-1.9088 -1.398881,-2.41018 -0.89666,-0.503 -2.195089,-0.71676 -3.927409,-0.71676 z m 1.339453,5.98465 -0.543118,0.047 c -0.622811,0.0519 -1.206699,0.11181 -1.753899,0.18345 -0.560568,0.0734 -1.046041,0.18049 -1.460892,0.32814 l -0.0021,0.002 c -0.443659,0.16001 -0.811827,0.39687 -1.072288,0.72244 -0.272304,0.34038 -0.396359,0.78317 -0.396359,1.27175 0,0.46878 0.21598,0.91216 0.60565,1.13482 l 0.0036,0.002 0.0062,0.004 c 0.367913,0.19679 0.824399,0.26769 1.38286,0.26769 0.06172,0 0.124206,-0.006 0.186553,-0.0103 l 2.599325,-2.03657 z m -1.023191,0.89452 -0.365353,1.57406 c -0.284226,0.19247 -0.579771,0.36806 -0.902271,0.50023 -0.346605,0.1381 -0.659779,0.20102 -0.939478,0.20102 -0.479541,0 -0.813837,-0.0757 -0.999939,-0.17363 -0.147498,-0.0852 -0.205156,-0.1666 -0.205156,-0.44132 0,-0.3603 0.08346,-0.60158 0.222727,-0.77566 0.150825,-0.18854 0.380529,-0.34946 0.720367,-0.47232 0.34399,-0.12243 0.777267,-0.22132 1.29708,-0.28939 0.363551,-0.0476 0.771827,-0.0841 1.172023,-0.12299 z"
           id="outline-st_a_y-black"
           inkscape:connector-curvature="0" />
        <path
           inkscape:connector-curvature="0"
           style="color:#000000;font-style:italic;font-variant:normal;font-weight:bold;font-stretch:normal;font-size:19.75555611px;line-height:1.25;font-family:sans-serif;-inkscape-font-specification:'sans-serif Bold Italic';font-variant-ligatures:normal;font-variant-position:normal;font-variant-caps:normal;font-variant-numeric:normal;font-variant-alternates:normal;font-feature-settings:normal;text-indent:0;text-align:start;text-decoration:none;text-decoration-line:none;text-decoration-style:solid;text-decoration-color:#000000;letter-spacing:0px;word-spacing:0px;text-transform:none;writing-mode:lr-tb;direction:ltr;text-orientation:mixed;dominant-baseline:auto;baseline-shift:baseline;text-anchor:start;white-space:normal;shape-padding:0;clip-rule:nonzero;display:inline;overflow:visible;visibility:visible;opacity:1;isolation:auto;mix-blend-mode:normal;color-interpolation:sRGB;color-interpolation-filters:linearRGB;solid-color:#000000;solid-opacity:1;vector-effect:none;fill:#ffffff;fill-opacity:1;fill-rule:nonzero;stroke:none;stroke-width:0.79374999;stroke-linecap:butt;stroke-linejoin:miter;stroke-miterlimit:4;stroke-dasharray:none;stroke-dashoffset:0;stroke-opacity:1;color-rendering:auto;image-rendering:auto;shape-rendering:auto;text-rendering:auto;enable-background:accumulate"
           d="m 57.377377,270.08018 -0.994773,0.77928 -1.328084,5.76606 h -2.640666 l 0.365353,-1.61334 -0.818555,0.52917 c -0.218511,0.14139 -0.482036,0.31229 -0.790649,0.51159 -0.294828,0.19042 -0.56398,0.33844 -0.803052,0.44339 -0.340821,0.13946 -0.65813,0.2439 -0.94723,0.31471 -0.180327,0.0442 -0.436531,0.0765 -0.75189,0.093 l -0.986504,0.77307 c 0.169963,0.0191 0.342942,0.032 0.521932,0.032 0.577729,0 1.038294,-0.0371 1.406115,-0.12712 0.338082,-0.0828 0.693352,-0.20138 1.068668,-0.35554 l 0.0057,-0.002 0.0041,-0.002 c 0.280292,-0.12306 0.575713,-0.29003 0.888318,-0.49041 l -0.156062,0.6873 h 4.265372 z m -4.218347,3.30471 -2.599325,2.03657 c 0.342455,-0.0233 0.693539,-0.10641 1.051615,-0.2496 h 0.0021 c 0.420251,-0.17223 0.815385,-0.38979 1.181322,-0.65216 l 0.121441,-0.0879 z"
           id="outline-st_a_y-white" />
      </g>
      <g
         id="outline-sta_y_"
         transform="translate(0,-259.56143)">
        <path
           inkscape:connector-curvature="0"
           style="color:#000000;font-style:italic;font-variant:normal;font-weight:bold;font-stretch:normal;font-size:19.75555611px;line-height:1.25;font-family:sans-serif;-inkscape-font-specification:'sans-serif Bold Italic';font-variant-ligatures:normal;font-variant-position:normal;font-variant-caps:normal;font-variant-numeric:normal;font-variant-alternates:normal;font-feature-settings:normal;text-indent:0;text-align:start;text-decoration:none;text-decoration-line:none;text-decoration-style:solid;text-decoration-color:#000000;letter-spacing:0px;word-spacing:0px;text-transform:none;writing-mode:lr-tb;direction:ltr;text-orientation:mixed;dominant-baseline:auto;baseline-shift:baseline;text-anchor:start;white-space:normal;shape-padding:0;clip-rule:nonzero;display:inline;overflow:visible;visibility:visible;opacity:1;isolation:auto;mix-blend-mode:normal;color-interpolation:sRGB;color-interpolation-filters:linearRGB;solid-color:#000000;solid-opacity:1;vector-effect:none;fill:#000000;fill-opacity:1;fill-rule:nonzero;stroke:none;stroke-width:0.79374999;stroke-linecap:butt;stroke-linejoin:miter;stroke-miterlimit:4;stroke-dasharray:none;stroke-dashoffset:0;stroke-opacity:1;color-rendering:auto;image-rendering:auto;shape-rendering:auto;text-rendering:auto;enable-background:accumulate"
           d="m 58.482219,265.7931 0.507979,3.02308 0.711067,-0.55708 -0.28112,-1.67328 h 2.416906 l 1.011824,-0.79272 z"
           id="outline-sta_y_-black" />
        <path
           inkscape:connector-curvature="0"
           style="color:#000000;font-style:italic;font-variant:normal;font-weight:bold;font-stretch:normal;font-size:19.75555611px;line-height:1.25;font-family:sans-serif;-inkscape-font-specification:'sans-serif Bold Italic';font-variant-ligatures:normal;font-variant-position:normal;font-variant-caps:normal;font-variant-numeric:normal;font-variant-alternates:normal;font-feature-settings:normal;text-indent:0;text-align:start;text-decoration:none;text-decoration-line:none;text-decoration-style:solid;text-decoration-color:#000000;letter-spacing:0px;word-spacing:0px;text-transform:none;writing-mode:lr-tb;direction:ltr;text-orientation:mixed;dominant-baseline:auto;baseline-shift:baseline;text-anchor:start;white-space:normal;shape-padding:0;clip-rule:nonzero;display:inline;overflow:visible;visibility:visible;opacity:1;isolation:auto;mix-blend-mode:normal;color-interpolation:sRGB;color-interpolation-filters:linearRGB;solid-color:#000000;solid-opacity:1;vector-effect:none;fill:#ffffff;fill-opacity:1;fill-rule:nonzero;stroke:none;stroke-width:0.79374999;stroke-linecap:butt;stroke-linejoin:miter;stroke-miterlimit:4;stroke-dasharray:none;stroke-dashoffset:0;stroke-opacity:1;color-rendering:auto;image-rendering:auto;shape-rendering:auto;text-rendering:auto;enable-background:accumulate"
           d="m 62.848875,265.7931 -1.011824,0.79272 h 0.315227 l 1.042831,7.90856 4.597652,-7.90856 h 2.71508 l -8.93744,14.01362 h -2.85564 l 2.437577,-3.70107 -1.451073,-8.63927 -0.711067,0.55708 1.328083,7.90649 -3.077847,4.67207 h 4.765601 l 0.115236,-0.18397 9.834026,-15.41767 h -4.617289 l -3.660241,6.29264 -0.828373,-6.29264 z"
           id="outline-sta_y_-white" />
      </g>
    </g>
    <g
       id="outlines-colorful">
      <path
         inkscape:connector-curvature="0"
         id="outline-_c_olorful"
         style="font-style:italic;font-variant:normal;font-weight:bold;font-stretch:normal;font-size:19.75555611px;line-height:1.25;font-family:sans-serif;-inkscape-font-specification:'sans-serif Bold Italic';letter-spacing:0px;word-spacing:0px;fill:none;fill-opacity:1;stroke:#000000;stroke-width:0.79374999;stroke-miterlimit:4;stroke-dasharray:none;stroke-opacity:1"
         d="m 8.8029053,294.2369 q -2.9131728,0 -4.4951607,-1.42765 -1.5819879,-1.4373 -1.5819879,-4.10931 0,-2.11254 0.6945313,-3.82957 0.7041775,-1.71704 1.9292535,-2.97105 1.1961372,-1.21543 2.8649415,-1.90032 1.6784505,-0.68488 3.520888,-0.68488 1.485525,0 2.758832,0.30868 1.273308,0.29903 2.295812,0.88746 l -0.848872,3.4823 h -0.424435 q -0.916396,-0.98392 -1.823145,-1.44694 -0.906749,-0.46302 -2.131825,-0.46302 -2.1511178,0 -3.5498266,1.72668 -1.3890626,1.72668 -1.3890626,4.3987 0,1.71703 0.7717014,2.48873 0.7717014,0.77171 2.2572267,0.77171 1.3311851,0 2.4983831,-0.53055 1.167199,-0.54019 2.208995,-1.36977 h 0.385851 l -0.839225,3.43407 q -0.434082,0.17364 -1.012858,0.42444 -0.578776,0.24116 -1.109321,0.3955 -0.694531,0.20257 -1.302246,0.30868 -0.5980687,0.10611 -1.6784507,0.10611 z"
         transform="translate(0,-259.56143)" />
      <path
         inkscape:connector-curvature="0"
         id="outline-c_o_lorful"
         style="font-style:italic;font-variant:normal;font-weight:bold;font-stretch:normal;font-size:19.75555611px;line-height:1.25;font-family:sans-serif;-inkscape-font-specification:'sans-serif Bold Italic';letter-spacing:0px;word-spacing:0px;fill:none;fill-opacity:1;stroke:#000000;stroke-width:0.79374999;stroke-miterlimit:4;stroke-dasharray:none;stroke-opacity:1"
         d="m 28.780326,287.08901 q 0,1.52411 -0.511252,2.8553 -0.511252,1.33118 -1.437294,2.28616 -0.964627,0.99357 -2.237934,1.53376 -1.273308,0.53054 -2.971051,0.53054 -2.421213,0 -3.713813,-1.15755 -1.2926,-1.15755 -1.2926,-3.20256 0,-1.44694 0.482314,-2.74919 0.482313,-1.30224 1.427647,-2.29581 0.916396,-0.97427 2.247581,-1.53375 1.340831,-0.56913 2.999989,-0.56913 2.43086,0 3.713813,1.1479 1.2926,1.13826 1.2926,3.15433 z m -4.514453,3.54983 q 0.443728,-0.67524 0.665592,-1.47588 0.231511,-0.80064 0.231511,-1.94855 0,-0.99356 -0.434082,-1.52411 -0.434082,-0.54019 -1.379417,-0.54019 -0.733116,0 -1.2926,0.35691 -0.549837,0.35691 -0.974273,1.01286 -0.395497,0.60772 -0.627007,1.50482 -0.221864,0.8971 -0.221864,1.84244 0,1.10932 0.491959,1.59163 0.49196,0.47267 1.350478,0.47267 0.627007,0 1.205783,-0.33762 0.578776,-0.34727 0.98392,-0.95498 z"
         transform="translate(0,-259.56143)" />
      <g
         id="outline-co_l_orful"
         transform="translate(0,-259.56143)">
        <path
           inkscape:connector-curvature="0"
           style="color:#000000;font-style:italic;font-variant:normal;font-weight:bold;font-stretch:normal;font-size:19.75555611px;line-height:1.25;font-family:sans-serif;-inkscape-font-specification:'sans-serif Bold Italic';font-variant-ligatures:normal;font-variant-position:normal;font-variant-caps:normal;font-variant-numeric:normal;font-variant-alternates:normal;font-feature-settings:normal;text-indent:0;text-align:start;text-decoration:none;text-decoration-line:none;text-decoration-style:solid;text-decoration-color:#000000;letter-spacing:0px;word-spacing:0px;text-transform:none;writing-mode:lr-tb;direction:ltr;text-orientation:mixed;dominant-baseline:auto;baseline-shift:baseline;text-anchor:start;white-space:normal;shape-padding:0;clip-rule:nonzero;display:inline;overflow:visible;visibility:visible;opacity:1;isolation:auto;mix-blend-mode:normal;color-interpolation:sRGB;color-interpolation-filters:linearRGB;solid-color:#000000;solid-opacity:1;vector-effect:none;fill:#000000;fill-opacity:1;fill-rule:nonzero;stroke:none;stroke-width:0.79374999;stroke-linecap:butt;stroke-linejoin:miter;stroke-miterlimit:4;stroke-dasharray:none;stroke-dashoffset:0;stroke-opacity:1;color-rendering:auto;image-rendering:auto;shape-rendering:auto;text-rendering:auto;enable-background:accumulate"
           d="m 32.988168,278.55098 -3.006019,12.99301 0.99632,-0.78083 2.640666,-11.41946 h 2.677875 l -2.049489,8.85837 0.994772,-0.77928 2.052587,-8.87181 h -0.49816 z"
           id="outline-co_l_orful-black" />
        <path
           inkscape:connector-curvature="0"
           style="color:#000000;font-style:italic;font-variant:normal;font-weight:bold;font-stretch:normal;font-size:19.75555611px;line-height:1.25;font-family:sans-serif;-inkscape-font-specification:'sans-serif Bold Italic';font-variant-ligatures:normal;font-variant-position:normal;font-variant-caps:normal;font-variant-numeric:normal;font-variant-alternates:normal;font-feature-settings:normal;text-indent:0;text-align:start;text-decoration:none;text-decoration-line:none;text-decoration-style:solid;text-decoration-color:#000000;letter-spacing:0px;word-spacing:0px;text-transform:none;writing-mode:lr-tb;direction:ltr;text-orientation:mixed;dominant-baseline:auto;baseline-shift:baseline;text-anchor:start;white-space:normal;shape-padding:0;clip-rule:nonzero;display:inline;overflow:visible;visibility:visible;opacity:1;isolation:auto;mix-blend-mode:normal;color-interpolation:sRGB;color-interpolation-filters:linearRGB;solid-color:#000000;solid-opacity:1;vector-effect:none;fill:#ffffff;fill-opacity:1;fill-rule:nonzero;stroke:none;stroke-width:0.79374999;stroke-linecap:butt;stroke-linejoin:miter;stroke-miterlimit:4;stroke-dasharray:none;stroke-dashoffset:0;stroke-opacity:1;color-rendering:auto;image-rendering:auto;shape-rendering:auto;text-rendering:auto;enable-background:accumulate"
           d="m 35.242293,287.42279 -0.994772,0.77928 -1.239716,5.35833 h -2.675808 l 0.646472,-2.79724 -0.99632,0.78083 -0.650089,2.80965 h 4.306713 z"
           id="outline-co_l_orful-white" />
      </g>
      <path
         inkscape:connector-curvature="0"
         id="outline-col_o_rful"
         style="font-style:italic;font-variant:normal;font-weight:bold;font-stretch:normal;font-size:19.75555611px;line-height:1.25;font-family:sans-serif;-inkscape-font-specification:'sans-serif Bold Italic';letter-spacing:0px;word-spacing:0px;fill:none;fill-opacity:1;stroke:#ffffff;stroke-width:0.79374999;stroke-miterlimit:4;stroke-dasharray:none;stroke-opacity:1"
         d="m 49.076074,287.08901 q 0,1.52411 -0.511252,2.8553 -0.511253,1.33118 -1.437294,2.28616 -0.964627,0.99357 -2.237934,1.53376 -1.273308,0.53054 -2.971051,0.53054 -2.421213,0 -3.713813,-1.15755 -1.2926,-1.15755 -1.2926,-3.20256 0,-1.44694 0.482314,-2.74919 0.482313,-1.30224 1.427647,-2.29581 0.916396,-0.97427 2.247581,-1.53375 1.340831,-0.56913 2.999989,-0.56913 2.430859,0 3.713813,1.1479 1.2926,1.13826 1.2926,3.15433 z m -4.514454,3.54983 q 0.443729,-0.67524 0.665593,-1.47588 0.23151,-0.80064 0.23151,-1.94855 0,-0.99356 -0.434082,-1.52411 -0.434082,-0.54019 -1.379416,-0.54019 -0.733116,0 -1.2926,0.35691 -0.549837,0.35691 -0.974273,1.01286 -0.395497,0.60772 -0.627007,1.50482 -0.221864,0.8971 -0.221864,1.84244 0,1.10932 0.491959,1.59163 0.49196,0.47267 1.350478,0.47267 0.627007,0 1.205783,-0.33762 0.578776,-0.34727 0.983919,-0.95498 z"
         transform="translate(0,-259.56143)" />
      <path
         inkscape:connector-curvature="0"
         id="outline-colo_r_ful"
         style="font-style:italic;font-variant:normal;font-weight:bold;font-stretch:normal;font-size:19.75555611px;line-height:1.25;font-family:sans-serif;-inkscape-font-specification:'sans-serif Bold Italic';letter-spacing:0px;word-spacing:0px;fill:none;fill-opacity:1;stroke:#ffffff;stroke-width:0.79374999;stroke-miterlimit:4;stroke-dasharray:none;stroke-opacity:1"
         d="m 59.735198,286.43306 h -0.308681 q -0.23151,-0.0772 -0.655946,-0.11575 -0.424436,-0.0386 -0.839225,-0.0386 -0.684885,0 -1.321539,0.10611 -0.636654,0.0965 -1.311893,0.31833 l -1.67845,7.25399 h -3.491949 l 2.50803,-10.83276 h 3.491948 l -0.366558,1.59164 q 0.98392,-0.72347 1.958193,-1.17685 0.983919,-0.45337 1.977484,-0.45337 0.18328,0 0.405144,0.01 0.23151,0.01 0.405143,0.0289 z"
         transform="translate(0,-259.56143)" />
      <path
         inkscape:connector-curvature="0"
         id="outline-color_f_ul"
         style="font-style:italic;font-variant:normal;font-weight:bold;font-stretch:normal;font-size:19.75555611px;line-height:1.25;font-family:sans-serif;-inkscape-font-specification:'sans-serif Bold Italic';letter-spacing:0px;word-spacing:0px;fill:none;fill-opacity:1;stroke:#ffffff;stroke-width:0.79374999;stroke-miterlimit:4;stroke-dasharray:none;stroke-opacity:1"
         d="m 67.251734,283.12439 h 2.681663 l -0.520899,2.28617 h -2.565907 l -1.977485,8.54659 h -3.491949 l 1.977485,-8.54659 h -1.485525 l 0.520898,-2.28617 h 1.485526 l 0.06752,-0.27974 q 0.443729,-1.95819 1.620573,-2.97105 1.176845,-1.0225 3.482303,-1.0225 0.848872,0 1.475879,0.0579 0.627007,0.0482 1.080382,0.13504 l -0.56913,2.45016 h -0.260449 q -0.221864,-0.0772 -0.636654,-0.15434 -0.405143,-0.0868 -0.752409,-0.0868 -0.964626,0 -1.408355,0.3762 -0.434082,0.37621 -0.704177,1.418 z"
         transform="translate(0,-259.56143)" />
      <path
         inkscape:connector-curvature="0"
         id="outline-colorf_u_l"
         style="font-style:italic;font-variant:normal;font-weight:bold;font-stretch:normal;font-size:19.75555611px;line-height:1.25;font-family:sans-serif;-inkscape-font-specification:'sans-serif Bold Italic';letter-spacing:0px;word-spacing:0px;fill:none;fill-opacity:1;stroke:#ffffff;stroke-width:0.79374999;stroke-miterlimit:4;stroke-dasharray:none;stroke-opacity:1"
         d="m 82.762935,283.12439 -2.50803,10.83276 h -3.491949 l 0.279742,-1.19613 q -0.520899,0.33762 -1.022504,0.63665 -0.49196,0.28939 -0.935688,0.46302 -0.559484,0.23151 -1.022505,0.30868 -0.463021,0.0868 -0.916395,0.0868 -1.427648,0 -2.257227,-0.68489 -0.819933,-0.68488 -0.819933,-2.02571 0,-0.36656 0.03859,-0.67524 0.03859,-0.31833 0.125402,-0.69453 l 1.630219,-7.05143 h 3.511242 l -1.244369,5.37298 q -0.144694,0.61736 -0.221864,1.06109 -0.06752,0.44372 -0.06752,0.7524 0,0.63666 0.308681,0.92605 0.30868,0.27974 1.167198,0.27974 0.424436,0 0.974273,-0.18328 0.559484,-0.18328 1.205783,-0.53055 l 1.774914,-7.67843 z"
         transform="translate(0,-259.56143)" />
      <path
         inkscape:connector-curvature="0"
         id="outline-colorfu_l_"
         style="font-style:italic;font-variant:normal;font-weight:bold;font-stretch:normal;font-size:19.75555611px;line-height:1.25;font-family:sans-serif;-inkscape-font-specification:'sans-serif Bold Italic';letter-spacing:0px;word-spacing:0px;fill:none;fill-opacity:1;stroke:#ffffff;stroke-width:0.79374999;stroke-miterlimit:4;stroke-dasharray:none;stroke-opacity:1"
         d="m 90.49924,278.94756 -3.472656,15.00959 h -3.491949 l 3.472656,-15.00959 z"
         transform="translate(0,-259.56143)" />
    </g>
  </g>
</svg>
