<?xml version="1.0" encoding="UTF-8" standalone="no"?>
<!-- Created with Inkscape (http://www.inkscape.org/) -->

<svg
   xmlns:osb="http://www.openswatchbook.org/uri/2009/osb"
   xmlns:dc="http://purl.org/dc/elements/1.1/"
   xmlns:cc="http://creativecommons.org/ns#"
   xmlns:rdf="http://www.w3.org/1999/02/22-rdf-syntax-ns#"
   xmlns:svg="http://www.w3.org/2000/svg"
   xmlns="http://www.w3.org/2000/svg"
   xmlns:xlink="http://www.w3.org/1999/xlink"
   xmlns:sodipodi="http://sodipodi.sourceforge.net/DTD/sodipodi-0.dtd"
   xmlns:inkscape="http://www.inkscape.org/namespaces/inkscape"
   width="344.12299"
   height="141.5"
   viewBox="0 0 91.049202 37.438543"
   version="1.1"
   id="title"
   sodipodi:docname="title.svg"
   inkscape:version="0.92.2 (5c3e80d, 2017-08-06)">
  <defs
     id="defs2">
    <linearGradient
       id="Color1_Dark"
       osb:paint="solid">
      <stop
         style="stop-color:#a33c29;stop-opacity:1;"
         offset="0"
         id="stop1124" />
    </linearGradient>
    <linearGradient
       id="Color2_Dark"
       osb:paint="solid">
      <stop
         style="stop-color:#1eb342;stop-opacity:1;"
         offset="0"
         id="stop1112" />
    </linearGradient>
    <linearGradient
       id="Color0_Dark"
       osb:paint="solid">
      <stop
         style="stop-color:#247691;stop-opacity:1;"
         offset="0"
         id="stop1100" />
    </linearGradient>
    <linearGradient
       id="Background_Black"
       osb:paint="solid">
      <stop
         style="stop-color:#282828;stop-opacity:1;"
         offset="0"
         id="stop927" />
    </linearGradient>
    <linearGradient
       id="Background_White"
       osb:paint="solid">
      <stop
         offset="0"
         id="stop909"
         style="stop-color:#dcdcdc;stop-opacity:1" />
    </linearGradient>
    <inkscape:path-effect
       oposite_fuse="false"
       fuse_paths="false"
       discard_orig_path="false"
       mode="vertical"
       is_visible="true"
       id="path-effect1726"
       center_point="45.524603,278.2807"
       end_point="45.524603,296.99997"
       start_point="45.524603,259.56143"
       effect="mirror_symmetry" />
    <inkscape:path-effect
       oposite_fuse="false"
       fuse_paths="false"
       discard_orig_path="false"
       mode="horizontal"
       is_visible="true"
       id="path-effect1724"
       center_point="45.524603,278.2807"
       end_point="91.049206,278.2807"
       start_point="0,278.2807"
       effect="mirror_symmetry" />
    <inkscape:path-effect
       effect="mirror_symmetry"
       start_point="45.524603,259.56143"
       end_point="45.524603,296.99997"
       center_point="45.524603,278.2807"
       id="path-effect1708"
       is_visible="true"
       mode="vertical"
       discard_orig_path="false"
       fuse_paths="false"
       oposite_fuse="false" />
    <inkscape:path-effect
       effect="mirror_symmetry"
       start_point="0,278.2807"
       end_point="91.049206,278.2807"
       center_point="45.524603,278.2807"
       id="path-effect1706"
       is_visible="true"
       mode="horizontal"
       discard_orig_path="false"
       fuse_paths="false"
       oposite_fuse="false" />
    <linearGradient
       id="White"
       osb:paint="solid"
       gradientTransform="matrix(3.8878591,0,0,3.7367528,-97.357584,-104.20219)">
      <stop
         offset="0"
         id="stop1015"
         style="stop-color:#ffffff;stop-opacity:1" />
    </linearGradient>
    <linearGradient
       id="Black"
       osb:paint="solid"
       gradientTransform="matrix(3.8878591,0,0,3.7367528,-14.785684,-79.33618)">
      <stop
         offset="0"
         id="stop987"
         style="stop-color:#000000;stop-opacity:1" />
    </linearGradient>
    <linearGradient
       id="Color2_Medium"
       osb:paint="solid">
      <stop
         style="stop-color:#5ae15a;stop-opacity:1;"
         offset="0"
         id="stop5414" />
    </linearGradient>
    <linearGradient
       id="Color1_Medium"
       osb:paint="solid">
      <stop
         style="stop-color:#dc4747;stop-opacity:1;"
         offset="0"
         id="stop5406" />
    </linearGradient>
    <linearGradient
       id="Color0_Medium"
       osb:paint="solid">
      <stop
         style="stop-color:#239fdc;stop-opacity:1;"
         offset="0"
         id="stop5396" />
    </linearGradient>
    <linearGradient
       id="Color2"
       osb:paint="solid"
       gradientTransform="matrix(0.26458333,0,0,0.26458333,0,258.21988)">
      <stop
         style="stop-color:#66ff66;stop-opacity:1;"
         offset="0"
         id="stop4969" />
    </linearGradient>
    <linearGradient
       id="Color1"
       osb:paint="solid"
       gradientTransform="translate(0,72.514908)">
      <stop
         style="stop-color:#f04c4c;stop-opacity:1;"
         offset="0"
         id="stop4963" />
    </linearGradient>
    <linearGradient
       id="Color0"
       osb:paint="solid"
       gradientTransform="translate(0,72.514908)">
      <stop
         style="stop-color:#19b2ff;stop-opacity:1;"
         offset="0"
         id="stop4951" />
    </linearGradient>
    <marker
       id="Arrow2Sstart"
       inkscape:isstock="true"
       inkscape:stockid="Arrow2Sstart"
       orient="auto"
       refX="0"
       refY="0"
       style="overflow:visible">
      <path
         d="M 8.72,4.03 -2.21,0.02 8.72,-4 c -1.75,2.37 -1.74,5.62 0,8.03 z"
         id="Arrow2SstartPath"
         style="fill:#000000;fill-opacity:1;stroke:#000000;stroke-opacity:1"
         transform="matrix(0.3,0,0,0.3,-0.69,0)"
         inkscape:connector-curvature="0" />
    </marker>
    <marker
       id="Arrow2Send"
       inkscape:isstock="true"
       inkscape:stockid="Arrow2Send"
       orient="auto"
       refX="0"
       refY="0"
       style="overflow:visible">
      <path
         d="M 8.72,4.03 -2.21,0.02 8.72,-4 c -1.75,2.37 -1.74,5.62 0,8.03 z"
         id="Arrow2SendPath"
         style="fill:#000000;fill-opacity:1;stroke:#000000;stroke-opacity:1"
         transform="matrix(-0.3,0,0,-0.3,0.69,0)"
         inkscape:connector-curvature="0" />
    </marker>
    <linearGradient
       inkscape:collect="always"
       xlink:href="#Color0_Dark"
       id="linearGradient1104"
       x1="70.794276"
       y1="29.33557"
       x2="81.675266"
       y2="29.33557"
       gradientUnits="userSpaceOnUse" />
    <linearGradient
       inkscape:collect="always"
       xlink:href="#Color0_Dark"
       id="linearGradient1106"
       x1="36.884586"
       y1="29.18605"
       x2="48.749495"
       y2="29.18605"
       gradientUnits="userSpaceOnUse" />
    <linearGradient
       inkscape:collect="always"
       xlink:href="#Color0_Dark"
       id="linearGradient1108"
       x1="54.746165"
       y1="14.23874"
       x2="67.025863"
       y2="14.23874"
       gradientUnits="userSpaceOnUse" />
    <linearGradient
       inkscape:collect="always"
       xlink:href="#Color0_Dark"
       id="linearGradient1110"
       x1="20.026838"
       y1="10.486325"
       x2="32.306538"
       y2="10.486325"
       gradientUnits="userSpaceOnUse" />
    <linearGradient
       inkscape:collect="always"
       xlink:href="#Color2_Dark"
       id="linearGradient1116"
       x1="84.664639"
       y1="27.097635"
       x2="88.137296"
       y2="27.097635"
       gradientUnits="userSpaceOnUse" />
    <linearGradient
       inkscape:collect="always"
       xlink:href="#Color2_Dark"
       id="linearGradient1118"
       x1="51.257523"
       y1="29.166785"
       x2="59.109585"
       y2="29.166785"
       gradientUnits="userSpaceOnUse" />
    <linearGradient
       inkscape:collect="always"
       xlink:href="#Color2_Dark"
       id="linearGradient1120"
       x1="17.500253"
       y1="29.18605"
       x2="29.365162"
       y2="29.18605"
       gradientUnits="userSpaceOnUse" />
    <linearGradient
       inkscape:collect="always"
       xlink:href="#Color2_Dark"
       id="linearGradient1122"
       x1="33.43515"
       y1="10.809475"
       x2="41.586246"
       y2="10.809475"
       gradientUnits="userSpaceOnUse" />
    <linearGradient
       inkscape:collect="always"
       xlink:href="#Color1_Dark"
       id="linearGradient1128"
       x1="61.171642"
       y1="27.0494"
       x2="69.419205"
       y2="27.0494"
       gradientUnits="userSpaceOnUse" />
    <linearGradient
       inkscape:collect="always"
       xlink:href="#Color1_Dark"
       id="linearGradient1130"
       x1="42.84026"
       y1="12.24195"
       x2="53.653728"
       y2="12.24195"
       gradientUnits="userSpaceOnUse" />
    <linearGradient
       inkscape:collect="always"
       xlink:href="#Color1_Dark"
       id="linearGradient1132"
       x1="31.373192"
       y1="27.097635"
       x2="34.845848"
       y2="27.097635"
       gradientUnits="userSpaceOnUse" />
    <linearGradient
       inkscape:collect="always"
       xlink:href="#Color1_Dark"
       id="linearGradient1134"
       x1="2.8298852"
       y1="27.420786"
       x2="15.244632"
       y2="27.420786"
       gradientUnits="userSpaceOnUse" />
    <filter
       inkscape:collect="always"
       style="color-interpolation-filters:sRGB"
       id="filter1044"
       x="-0.021417261"
       width="1.0428345"
       y="-0.050061688"
       height="1.1001234">
      <feGaussianBlur
         inkscape:collect="always"
         stdDeviation="0.83612144"
         id="feGaussianBlur1046" />
    </filter>
  </defs>
  <sodipodi:namedview
     id="base"
     pagecolor="#ffffff"
     bordercolor="#666666"
     borderopacity="1.0"
     inkscape:pageopacity="0.0"
     inkscape:pageshadow="2"
     inkscape:zoom="2.56"
     inkscape:cx="169.85045"
     inkscape:cy="89.358355"
     inkscape:document-units="px"
     inkscape:current-layer="layer-background_blur"
     showgrid="false"
     units="px"
     inkscape:showpageshadow="false"
     inkscape:pagecheckerboard="true"
     showguides="false"
     inkscape:measure-start="344.043,13.4766"
     inkscape:measure-end="349.121,13.4766"
     fit-margin-top="0"
     fit-margin-left="0"
     fit-margin-right="0"
     fit-margin-bottom="0">
    <sodipodi:guide
       position="73.4219,39.687501"
       inkscape:color="rgb(167,0,255)"
       inkscape:label="Measure"
       orientation="0.610397,-0.792096"
       id="guide1126"
       inkscape:locked="false" />
    <sodipodi:guide
       position="73.4219,39.687501"
       inkscape:color="rgb(167,0,255)"
       inkscape:label=""
       orientation="-0,1"
       id="guide1128"
       inkscape:locked="false" />
    <sodipodi:guide
       position="73.4219,39.687501"
       inkscape:color="rgb(167,0,255)"
       inkscape:label="Start"
       orientation="-1,6.12303e-017"
       id="guide1130"
       inkscape:locked="false" />
    <sodipodi:guide
       position="18.0578,-2.9765584"
       inkscape:color="rgb(167,0,255)"
       inkscape:label="End"
       orientation="-0,1"
       id="guide1132"
       inkscape:locked="false" />
    <sodipodi:guide
       position="18.0578,-2.9765584"
       inkscape:color="rgb(167,0,255)"
       inkscape:label=""
       orientation="-1,6.12303e-017"
       id="guide1134"
       inkscape:locked="false" />
    <sodipodi:guide
       position="70.5035,37.438502"
       inkscape:color="rgb(167,0,255)"
       inkscape:label="Crossing 1"
       orientation="0.792096,0.610397"
       id="guide1136"
       inkscape:locked="false" />
    <sodipodi:guide
       position="21.9204,3.0318759e-006"
       inkscape:color="rgb(167,0,255)"
       inkscape:label="Crossing 2"
       orientation="0.792096,0.610397"
       id="guide1138"
       inkscape:locked="false" />
  </sodipodi:namedview>
  <metadata
     id="metadata5">
    <rdf:RDF>
      <cc:Work
         rdf:about="">
        <dc:format>image/svg+xml</dc:format>
        <dc:type
           rdf:resource="http://purl.org/dc/dcmitype/StillImage" />
        <dc:title />
      </cc:Work>
    </rdf:RDF>
  </metadata>
  <g
     inkscape:groupmode="layer"
     id="layer-backup"
     inkscape:label="Backup"
     style="display:none"
     sodipodi:insensitive="true">
    <path
       transform="translate(0,-259.56143)"
       style="display:inline;fill:#f8f8f8;fill-opacity:1;stroke:none;stroke-width:0.48292899;stroke-miterlimit:4;stroke-dasharray:none;stroke-dashoffset:0;stroke-opacity:1"
       d="m -105.83334,259.56143 h 68.527082 l -46.037498,37.43854 h -22.489584 z"
       id="path1710"
       inkscape:connector-curvature="0"
       sodipodi:nodetypes="ccccc" />
    <path
       transform="translate(0,-259.56143)"
       style="display:inline;fill:#141414;fill-opacity:1;stroke:none;stroke-width:0.48292899;stroke-miterlimit:4;stroke-dasharray:none;stroke-dashoffset:0;stroke-opacity:1"
       d="m -37.306258,259.56143 h 22.522129 v 37.43854 h -68.559627 z"
       id="path1712"
       inkscape:connector-curvature="0"
       sodipodi:nodetypes="ccccc" />
    <text
       transform="translate(0,-259.56143)"
       xml:space="preserve"
       style="font-style:normal;font-variant:normal;font-weight:bold;font-stretch:normal;font-size:5.64444447px;line-height:1.25;font-family:sans-serif;-inkscape-font-specification:'sans-serif Bold';letter-spacing:0px;word-spacing:0px;display:inline;opacity:1;fill:none;fill-opacity:1;stroke:#ff0000;stroke-width:0.66145831;stroke-linecap:butt;stroke-linejoin:bevel;stroke-miterlimit:4;stroke-dasharray:none;stroke-opacity:1"
       x="-104.2037"
       y="293.95715"
       id="text1716"><tspan
         dx="0 0.5 -0.5 -0.44999999 0 1.3 0.15000001 -0.30000001"
         sodipodi:role="line"
         id="tspan1714"
         x="-104.2037"
         y="293.95715"
         style="font-style:normal;font-variant:normal;font-weight:bold;font-stretch:normal;font-size:19.75555611px;font-family:sans-serif;-inkscape-font-specification:'sans-serif Bold';fill:none;fill-opacity:1;stroke:#ff0000;stroke-width:0.66145831;stroke-linecap:butt;stroke-linejoin:bevel;stroke-miterlimit:4;stroke-dasharray:none;stroke-opacity:1">Colorful</tspan></text>
    <text
       transform="translate(0,-259.56143)"
       id="text1720"
       y="277.02271"
       x="-87.064636"
       style="font-style:normal;font-variant:normal;font-weight:bold;font-stretch:normal;font-size:5.64444447px;line-height:1.25;font-family:sans-serif;-inkscape-font-specification:'sans-serif Bold';letter-spacing:0px;word-spacing:0px;display:inline;fill:none;fill-opacity:1;stroke:#ff0000;stroke-width:0.66145831;stroke-linecap:butt;stroke-linejoin:bevel;stroke-miterlimit:4;stroke-dasharray:none;stroke-opacity:1"
       xml:space="preserve"><tspan
         style="font-style:normal;font-variant:normal;font-weight:bold;font-stretch:normal;font-size:19.75555611px;font-family:sans-serif;-inkscape-font-specification:'sans-serif Bold';fill:none;stroke:#ff0000;stroke-width:0.66145831;stroke-linecap:butt;stroke-linejoin:bevel;stroke-miterlimit:4;stroke-dasharray:none;stroke-opacity:1"
         y="277.02271"
         x="-87.064636"
         id="tspan1718"
         sodipodi:role="line"
         dx="0 0 0 -0.75">Stay</tspan></text>
    <path
       transform="translate(0,-259.56143)"
       inkscape:original-d="M -83.290838,296.99997 -60.308733,278.2807"
       inkscape:path-effect="#path-effect1724;#path-effect1726"
       sodipodi:nodetypes="cc"
       inkscape:connector-curvature="0"
       id="path1722"
       d="m -83.290838,296.99997 22.982105,-18.71927 m -22.982105,-18.71927 22.982105,18.71927 m 234.648773,18.71927 -22.9821,-18.71927 m 22.9821,-18.71927 -22.9821,18.71927"
       style="display:inline;fill:none;stroke:#00ff00;stroke-width:0.06614583;stroke-linecap:butt;stroke-linejoin:miter;stroke-miterlimit:4;stroke-dasharray:none;stroke-opacity:1" />
  </g>
  <g
     inkscape:groupmode="layer"
     id="layer-background_blur"
     inkscape:label="Background_Blur"
     style="display:inline"
     sodipodi:insensitive="true">
    <g
       id="background-blur"
       style="filter:url(#filter1044)">
      <path
         id="background-blur_left"
         transform="scale(0.26458333)"
         d="m -5,-5 v 151.5 h 83.888672 l 6.142578,-5 H 0 V 0 h 258.88477 l 6.14257,-5 z"
         style="display:inline;fill:url(#Black);fill-opacity:1;stroke:none;stroke-width:1.89423573;stroke-miterlimit:4;stroke-dasharray:none;stroke-dashoffset:0;stroke-opacity:1"
         inkscape:connector-curvature="0" />
      <path
         id="background-blur-right"
         transform="scale(0.26458333)"
         d="m 265.02734,-5 -6.14257,5 h 85.23828 V 141.5 H 85.03125 l -6.142578,5 H 349.12305 V -5 Z"
         style="display:inline;fill:url(#White);fill-opacity:1;stroke:none;stroke-width:1.89423573;stroke-miterlimit:4;stroke-dasharray:none;stroke-dashoffset:0;stroke-opacity:1"
         inkscape:connector-curvature="0" />
    </g>
  </g>
  <g
     inkscape:label="Background"
     inkscape:groupmode="layer"
     id="layer-background"
     transform="translate(0,-259.56143)"
     style="display:inline"
     sodipodi:insensitive="true">
    <path
       style="display:inline;fill:url(#White);fill-opacity:1;stroke:none;stroke-width:0.48292899;stroke-miterlimit:4;stroke-dasharray:none;stroke-dashoffset:0;stroke-opacity:1"
       d="M 0,0 H 68.527081 L 22.489582,37.43854 H 0 Z"
       id="background-white"
       inkscape:connector-curvature="0"
       sodipodi:nodetypes="ccccc"
       transform="translate(0,259.56143)" />
    <path
       style="display:inline;fill:url(#Black);fill-opacity:1;stroke:none;stroke-width:0.48292899;stroke-miterlimit:4;stroke-dasharray:none;stroke-dashoffset:0;stroke-opacity:1"
       d="M 68.527081,0 H 91.049209 V 37.43854 H 22.489582 Z"
       id="background-black"
       inkscape:connector-curvature="0"
       sodipodi:nodetypes="ccccc"
       transform="translate(0,259.56143)" />
  </g>
  <g
     inkscape:groupmode="layer"
     id="layer-fillings_shadow"
     inkscape:label="Fillings_Shadow"
     style="display:none"
     sodipodi:insensitive="true">
    <g
       id="shadows-stay"
       transform="translate(0.10335286,0.10335286)">
      <path
         d="m 32.306538,13.15353 q 0,2.12218 -1.803852,3.45337 -1.794206,1.32153 -4.881011,1.32153 -1.78456,0 -3.115745,-0.30868 -1.321539,-0.31832 -2.479091,-0.80064 V 13.3754 h 0.405144 q 1.147905,0.91639 2.565907,1.40835 1.427647,0.49196 2.73954,0.49196 0.337619,0 0.887456,-0.0579 0.549838,-0.0579 0.897103,-0.19292 0.424436,-0.17364 0.694531,-0.43408 0.279742,-0.26045 0.279742,-0.77171 0,-0.47266 -0.405143,-0.81028 -0.395497,-0.34727 -1.167198,-0.53055 -0.810287,-0.19292 -1.717036,-0.35691 -0.897103,-0.17363 -1.688097,-0.43408 -1.813498,-0.58842 -2.614138,-1.59164 -0.790994,-1.01285 -0.790994,-2.50802 0,-2.00643 1.794205,-3.27009 1.803853,-1.27331 4.630209,-1.27331 1.418001,0 2.797418,0.27975 1.389062,0.27009 2.40192,0.68488 V 7.31752 H 31.341911 Q 30.473747,6.62299 29.210086,6.15997 27.956071,5.6873 26.644179,5.6873 q -0.463021,0 -0.926042,0.0675 -0.453374,0.0579 -0.87781,0.23151 -0.376205,0.1447 -0.6463,0.44373 -0.270096,0.28939 -0.270096,0.6656 0,0.56913 0.434082,0.87781 0.434082,0.29903 1.639866,0.54983 0.790994,0.16399 1.514464,0.31833 0.733116,0.15434 1.572342,0.42444 1.649511,0.54019 2.430859,1.47587 0.790994,0.92605 0.790994,2.41157 z"
         style="font-style:normal;font-variant:normal;font-weight:bold;font-stretch:normal;font-size:19.75555611px;line-height:1.25;font-family:sans-serif;-inkscape-font-specification:'sans-serif Bold';letter-spacing:0px;word-spacing:0px;display:inline;fill:url(#linearGradient1110);fill-opacity:1;stroke:none;stroke-width:0.66145831;stroke-linecap:butt;stroke-linejoin:bevel;stroke-miterlimit:4;stroke-dasharray:none;stroke-opacity:1"
         id="shadow-_s_tay"
         inkscape:connector-curvature="0" />
      <path
         d="m 41.586248,17.57152 q -0.559484,0.1447 -1.186491,0.22187 -0.627008,0.0868 -1.533757,0.0868 -2.025716,0 -3.019282,-0.81993 -0.983919,-0.81993 -0.983919,-2.80706 V 9.18891 H 33.435151 V 6.83522 h 1.427648 V 3.73876 h 3.472656 v 3.09646 h 3.250793 v 2.35369 h -3.250793 v 3.83921 q 0,0.56913 0.0096,0.99357 0.0096,0.42443 0.15434,0.76205 0.135048,0.33762 0.472667,0.54019 0.347266,0.19293 1.003212,0.19293 0.270095,0 0.704177,-0.11576 0.443729,-0.11575 0.617361,-0.21222 h 0.289389 z"
         style="font-style:normal;font-variant:normal;font-weight:bold;font-stretch:normal;font-size:19.75555611px;line-height:1.25;font-family:sans-serif;-inkscape-font-specification:'sans-serif Bold';letter-spacing:0px;word-spacing:0px;display:inline;fill:url(#linearGradient1122);fill-opacity:1;stroke:none;stroke-width:0.66145831;stroke-linecap:butt;stroke-linejoin:bevel;stroke-miterlimit:4;stroke-dasharray:none;stroke-opacity:1"
         id="shadow-s_t_ay"
         inkscape:connector-curvature="0" />
      <path
         d="M 50.21001,14.84163 V 12.5844 q -0.704178,0.0579 -1.524111,0.16399 -0.819932,0.0965 -1.244368,0.23151 -0.520899,0.16399 -0.80064,0.48231 -0.270096,0.30868 -0.270096,0.81994 0,0.33761 0.05788,0.54983 0.05788,0.21222 0.289388,0.40515 0.221864,0.19292 0.530544,0.28938 0.308681,0.0868 0.964627,0.0868 0.520899,0 1.051443,-0.21222 0.540191,-0.21222 0.945335,-0.55948 z m 0,1.67845 q -0.279742,0.21222 -0.694532,0.51125 -0.414789,0.29904 -0.781347,0.47267 -0.511253,0.23151 -1.06109,0.33762 -0.549837,0.11575 -1.205783,0.11575 -1.543403,0 -2.5852,-0.95498 -1.041797,-0.95498 -1.041797,-2.4405 0,-1.18649 0.530545,-1.9389 0.530545,-0.75241 1.504818,-1.18649 0.964626,-0.43409 2.392274,-0.61736 1.427648,-0.18328 2.961404,-0.2701 v -0.0579 q 0,-0.8971 -0.733116,-1.23472 -0.733117,-0.34727 -2.160764,-0.34727 -0.858518,0 -1.832791,0.30868 -0.974273,0.29904 -1.398709,0.46303 H 43.785595 V 7.06672 q 0.549838,-0.1447 1.78456,-0.33762 1.244368,-0.20257 2.488737,-0.20257 2.961404,0 4.273296,0.91639 1.321539,0.90675 1.321539,2.8553 v 7.36975 H 50.21001 Z"
         style="font-style:normal;font-variant:normal;font-weight:bold;font-stretch:normal;font-size:19.75555611px;line-height:1.25;font-family:sans-serif;-inkscape-font-specification:'sans-serif Bold';letter-spacing:0px;word-spacing:0px;display:inline;fill:url(#linearGradient1130);fill-opacity:1;stroke:none;stroke-width:0.66145831;stroke-linecap:butt;stroke-linejoin:bevel;stroke-miterlimit:4;stroke-dasharray:none;stroke-opacity:1"
         id="shadow-st_a_y"
         inkscape:connector-curvature="0" />
      <path
         d="m 60.9873,13.83842 2.469444,-7.00319 h 3.569119 L 61.006592,21.64225 H 57.244548 L 58.961584,17.59081 54.746165,6.83523 h 3.646289 z"
         style="font-style:normal;font-variant:normal;font-weight:bold;font-stretch:normal;font-size:19.75555611px;line-height:1.25;font-family:sans-serif;-inkscape-font-specification:'sans-serif Bold';letter-spacing:0px;word-spacing:0px;display:inline;fill:url(#linearGradient1108);fill-opacity:1;stroke:none;stroke-width:0.66145831;stroke-linecap:butt;stroke-linejoin:bevel;stroke-miterlimit:4;stroke-dasharray:none;stroke-opacity:1"
         id="shadow-sta_y_"
         inkscape:connector-curvature="0" />
    </g>
    <g
       id="shadows-colorful"
       transform="translate(0.10335286,0.10335286)">
      <path
         d="m 10.161049,34.88217 q -1.6012808,0 -2.9614045,-0.47266 Q 5.849167,33.93684 4.874894,33.00115 3.900621,32.06546 3.36043,30.66675 2.8298853,29.26804 2.8298853,27.43525 q 0,-1.70739 0.5112521,-3.09645 0.5112522,-1.38906 1.4855253,-2.38263 0.9356879,-0.95498 2.3151042,-1.47587 1.3890625,-0.5209 3.0289281,-0.5209 0.906749,0 1.630219,0.10611 0.733117,0.0965 1.350478,0.26044 0.6463,0.18328 1.167198,0.41479 0.530545,0.22187 0.926042,0.41479 v 3.48231 H 14.820196 Q 14.550101,24.40633 14.135311,24.088 13.730168,23.76967 13.20927,23.46099 q -0.530545,-0.30868 -1.147906,-0.5209 -0.617361,-0.21221 -1.321539,-0.21221 -0.781348,0 -1.4855255,0.2508 Q 8.550122,23.21984 7.9520534,23.78896 7.3829236,24.3388 7.0260117,25.24555 6.678746,26.1523 6.678746,27.4449 q 0,1.35048 0.3762045,2.25723 0.3858507,0.90675 0.9646267,1.42764 0.5884224,0.53055 1.3118924,0.76206 0.7234704,0.22186 1.4276484,0.22186 0.675238,0 1.331184,-0.20257 0.665593,-0.20257 1.225076,-0.54983 0.472668,-0.27975 0.877811,-0.59807 0.405143,-0.31833 0.665592,-0.54984 h 0.385851 v 3.43407 q -0.540191,0.24116 -1.032151,0.45338 -0.491959,0.21221 -1.03215,0.36655 -0.704178,0.20257 -1.321539,0.30868 -0.617361,0.10611 -1.697743,0.10611 z"
         style="font-style:normal;font-variant:normal;font-weight:bold;font-stretch:normal;font-size:19.75555611px;line-height:1.25;font-family:sans-serif;-inkscape-font-specification:'sans-serif Bold';letter-spacing:0px;word-spacing:0px;display:inline;fill:url(#linearGradient1134);fill-opacity:1;stroke:none;stroke-width:0.66145831;stroke-linecap:butt;stroke-linejoin:bevel;stroke-miterlimit:4;stroke-dasharray:none;stroke-opacity:1"
         id="shadow-_c_olorful"
         inkscape:connector-curvature="0" />
      <path
         d="m 29.365162,29.19087 q 0,2.67202 -1.562695,4.21542 -1.553049,1.53376 -4.369759,1.53376 -2.81671,0 -4.379406,-1.53376 -1.553049,-1.5434 -1.553049,-4.21542 0,-2.6913 1.562695,-4.22506 1.572342,-1.53376 4.36976,-1.53376 2.836002,0 4.379405,1.54341 1.553049,1.5434 1.553049,4.21541 z m -4.273296,2.63344 q 0.337619,-0.41479 0.501606,-0.99357 0.173632,-0.58842 0.173632,-1.62057 0,-0.95498 -0.173632,-1.60128 -0.173633,-0.6463 -0.482314,-1.03215 -0.30868,-0.3955 -0.742762,-0.55949 -0.434082,-0.16398 -0.935688,-0.16398 -0.501606,0 -0.897103,0.13504 -0.385851,0.13505 -0.742763,0.54019 -0.318327,0.37621 -0.511252,1.03216 -0.183279,0.65594 -0.183279,1.64951 0,0.88745 0.163986,1.5434 0.163987,0.6463 0.482314,1.0418 0.30868,0.3762 0.733116,0.54983 0.434082,0.17364 0.98392,0.17364 0.472667,0 0.897102,-0.15434 0.434082,-0.16399 0.733117,-0.54019 z"
         style="font-style:normal;font-variant:normal;font-weight:bold;font-stretch:normal;font-size:19.75555611px;line-height:1.25;font-family:sans-serif;-inkscape-font-specification:'sans-serif Bold';letter-spacing:0px;word-spacing:0px;display:inline;fill:url(#linearGradient1120);fill-opacity:1;stroke:none;stroke-width:0.66145831;stroke-linecap:butt;stroke-linejoin:bevel;stroke-miterlimit:4;stroke-dasharray:none;stroke-opacity:1"
         id="shadow-c_o_lorful"
         inkscape:connector-curvature="0" />
      <path
         d="M 34.845849,34.60243 H 31.373192 V 19.59284 h 3.472657 z"
         style="font-style:normal;font-variant:normal;font-weight:bold;font-stretch:normal;font-size:19.75555611px;line-height:1.25;font-family:sans-serif;-inkscape-font-specification:'sans-serif Bold';letter-spacing:0px;word-spacing:0px;display:inline;fill:url(#linearGradient1132);fill-opacity:1;stroke:none;stroke-width:0.66145831;stroke-linecap:butt;stroke-linejoin:bevel;stroke-miterlimit:4;stroke-dasharray:none;stroke-opacity:1"
         id="shadow-co_l_orful"
         inkscape:connector-curvature="0" />
      <path
         d="m 48.749495,29.19087 q 0,2.67202 -1.562695,4.21542 -1.553049,1.53376 -4.36976,1.53376 -2.81671,0 -4.379405,-1.53376 -1.553049,-1.5434 -1.553049,-4.21542 0,-2.6913 1.562695,-4.22506 1.572342,-1.53376 4.369759,-1.53376 2.836003,0 4.379406,1.54341 1.553049,1.5434 1.553049,4.21541 z m -4.273297,2.63344 q 0.33762,-0.41479 0.501606,-0.99357 0.173633,-0.58842 0.173633,-1.62057 0,-0.95498 -0.173633,-1.60128 -0.173633,-0.6463 -0.482313,-1.03215 -0.308681,-0.3955 -0.742763,-0.55949 -0.434082,-0.16398 -0.935688,-0.16398 -0.501606,0 -0.897103,0.13504 -0.38585,0.13505 -0.742762,0.54019 -0.318327,0.37621 -0.511252,1.03216 -0.183279,0.65594 -0.183279,1.64951 0,0.88745 0.163986,1.5434 0.163987,0.6463 0.482314,1.0418 0.30868,0.3762 0.733116,0.54983 0.434082,0.17364 0.983919,0.17364 0.472667,0 0.897103,-0.15434 0.434082,-0.16399 0.733116,-0.54019 z"
         style="font-style:normal;font-variant:normal;font-weight:bold;font-stretch:normal;font-size:19.75555611px;line-height:1.25;font-family:sans-serif;-inkscape-font-specification:'sans-serif Bold';letter-spacing:0px;word-spacing:0px;display:inline;fill:url(#linearGradient1106);fill-opacity:1;stroke:none;stroke-width:0.66145831;stroke-linecap:butt;stroke-linejoin:bevel;stroke-miterlimit:4;stroke-dasharray:none;stroke-opacity:1"
         id="shadow-col_o_rful"
         inkscape:connector-curvature="0" />
      <path
         d="m 59.109585,27.07834 h -0.30868 q -0.221865,-0.0772 -0.713824,-0.11575 -0.49196,-0.0386 -0.819933,-0.0386 -0.742763,0 -1.311892,0.0965 -0.56913,0.0965 -1.225076,0.32797 v 7.25399 H 51.257523 V 23.7697 h 3.472657 v 1.59164 q 1.147905,-0.98392 1.996777,-1.30225 0.848872,-0.32797 1.562695,-0.32797 0.183279,0 0.41479,0.01 0.23151,0.01 0.405143,0.0289 z"
         style="font-style:normal;font-variant:normal;font-weight:bold;font-stretch:normal;font-size:19.75555611px;line-height:1.25;font-family:sans-serif;-inkscape-font-specification:'sans-serif Bold';letter-spacing:0px;word-spacing:0px;display:inline;fill:url(#linearGradient1118);fill-opacity:1;stroke:none;stroke-width:0.66145831;stroke-linecap:butt;stroke-linejoin:bevel;stroke-miterlimit:4;stroke-dasharray:none;stroke-opacity:1"
         id="shadow-colo_r_ful"
         inkscape:connector-curvature="0" />
      <path
         d="m 69.419201,22.13945 h -0.26045 q -0.23151,-0.0675 -0.607715,-0.15434 -0.366558,-0.0868 -0.790993,-0.0868 -1.022505,0 -1.389063,0.36656 -0.356912,0.36656 -0.356912,1.418 v 0.0868 h 2.681662 v 2.35369 h -2.565907 v 8.47907 h -3.472656 v -8.47907 h -1.485525 v -2.35369 h 1.485525 v -0.29903 q 0,-1.98713 1.051443,-2.9807 1.06109,-0.99357 3.202561,-0.99357 0.771701,0 1.398709,0.0579 0.627007,0.0482 1.109321,0.13505 z"
         style="font-style:normal;font-variant:normal;font-weight:bold;font-stretch:normal;font-size:19.75555611px;line-height:1.25;font-family:sans-serif;-inkscape-font-specification:'sans-serif Bold';letter-spacing:0px;word-spacing:0px;display:inline;fill:url(#linearGradient1128);fill-opacity:1;stroke:none;stroke-width:0.66145831;stroke-linecap:butt;stroke-linejoin:bevel;stroke-miterlimit:4;stroke-dasharray:none;stroke-opacity:1"
         id="shadow-color_f_ul"
         inkscape:connector-curvature="0" />
      <path
         d="M 81.675266,34.60243 H 78.20261 v -1.19614 q -0.964627,0.73312 -1.765267,1.11897 -0.80064,0.37621 -1.909961,0.37621 -1.794206,0 -2.768479,-1.03216 -0.964627,-1.03215 -0.964627,-3.04822 v -7.05142 h 3.491949 v 5.37297 q 0,0.81994 0.04823,1.36977 0.05788,0.54019 0.250802,0.89711 0.18328,0.35691 0.549838,0.52089 0.376204,0.16399 1.041797,0.16399 0.443728,0 0.983919,-0.16399 0.540191,-0.16398 1.041797,-0.48231 v -7.67843 h 3.472656 z"
         style="font-style:normal;font-variant:normal;font-weight:bold;font-stretch:normal;font-size:19.75555611px;line-height:1.25;font-family:sans-serif;-inkscape-font-specification:'sans-serif Bold';letter-spacing:0px;word-spacing:0px;display:inline;fill:url(#linearGradient1104);fill-opacity:1;stroke:none;stroke-width:0.66145831;stroke-linecap:butt;stroke-linejoin:bevel;stroke-miterlimit:4;stroke-dasharray:none;stroke-opacity:1"
         id="shadow-colorf_u_l"
         inkscape:connector-curvature="0" />
      <path
         d="M 88.137296,34.60243 H 84.664639 V 19.59284 h 3.472657 z"
         style="font-style:normal;font-variant:normal;font-weight:bold;font-stretch:normal;font-size:19.75555611px;line-height:1.25;font-family:sans-serif;-inkscape-font-specification:'sans-serif Bold';letter-spacing:0px;word-spacing:0px;display:inline;fill:url(#linearGradient1116);fill-opacity:1;stroke:none;stroke-width:0.66145831;stroke-linecap:butt;stroke-linejoin:bevel;stroke-miterlimit:4;stroke-dasharray:none;stroke-opacity:1"
         id="shadow-colorfu_l_"
         inkscape:connector-curvature="0" />
    </g>
  </g>
  <g
     inkscape:groupmode="layer"
     id="layer-fillings"
     inkscape:label="Fillings"
     style="display:inline"
     sodipodi:insensitive="true">
    <g
       id="fillings-stay">
      <path
         inkscape:connector-curvature="0"
         id="filling-_s_tay"
         style="font-style:normal;font-variant:normal;font-weight:bold;font-stretch:normal;font-size:19.75555611px;line-height:1.25;font-family:sans-serif;-inkscape-font-specification:'sans-serif Bold';letter-spacing:0px;word-spacing:0px;display:inline;fill:url(#Color0);fill-opacity:1;stroke:none;stroke-width:0.66145831;stroke-linecap:butt;stroke-linejoin:bevel;stroke-miterlimit:4;stroke-dasharray:none;stroke-opacity:1"
         d="m 32.099832,272.50825 q 0,2.12218 -1.803852,3.45337 -1.794206,1.32153 -4.881011,1.32153 -1.78456,0 -3.115745,-0.30868 -1.321539,-0.31832 -2.479091,-0.80064 v -3.44371 h 0.405144 q 1.147905,0.91639 2.565907,1.40835 1.427647,0.49196 2.73954,0.49196 0.337619,0 0.887456,-0.0579 0.549838,-0.0579 0.897103,-0.19292 0.424436,-0.17364 0.694531,-0.43408 0.279742,-0.26045 0.279742,-0.77171 0,-0.47266 -0.405143,-0.81028 -0.395497,-0.34727 -1.167198,-0.53055 -0.810287,-0.19292 -1.717036,-0.35691 -0.897103,-0.17363 -1.688097,-0.43408 -1.813498,-0.58842 -2.614138,-1.59164 -0.790994,-1.01285 -0.790994,-2.50802 0,-2.00643 1.794205,-3.27009 1.803853,-1.27331 4.630209,-1.27331 1.418001,0 2.797418,0.27975 1.389062,0.27009 2.40192,0.68488 v 3.30867 h -0.395497 q -0.868164,-0.69453 -2.131825,-1.15755 -1.254015,-0.47267 -2.565907,-0.47267 -0.463021,0 -0.926042,0.0675 -0.453374,0.0579 -0.87781,0.23151 -0.376205,0.1447 -0.6463,0.44373 -0.270096,0.28939 -0.270096,0.6656 0,0.56913 0.434082,0.87781 0.434082,0.29903 1.639866,0.54983 0.790994,0.16399 1.514464,0.31833 0.733116,0.15434 1.572342,0.42444 1.649511,0.54019 2.430859,1.47587 0.790994,0.92605 0.790994,2.41157 z"
         transform="translate(0,-259.56143)" />
      <path
         inkscape:connector-curvature="0"
         id="filling-s_t_ay"
         style="font-style:normal;font-variant:normal;font-weight:bold;font-stretch:normal;font-size:19.75555611px;line-height:1.25;font-family:sans-serif;-inkscape-font-specification:'sans-serif Bold';letter-spacing:0px;word-spacing:0px;display:inline;fill:url(#Color2);fill-opacity:1;stroke:none;stroke-width:0.66145831;stroke-linecap:butt;stroke-linejoin:bevel;stroke-miterlimit:4;stroke-dasharray:none;stroke-opacity:1"
         d="m 41.379542,276.92624 q -0.559484,0.1447 -1.186491,0.22187 -0.627008,0.0868 -1.533757,0.0868 -2.025716,0 -3.019282,-0.81993 -0.983919,-0.81993 -0.983919,-2.80706 v -5.06429 h -1.427648 v -2.35369 h 1.427648 v -3.09646 h 3.472656 v 3.09646 h 3.250793 v 2.35369 h -3.250793 v 3.83921 q 0,0.56913 0.0096,0.99357 0.0096,0.42443 0.15434,0.76205 0.135048,0.33762 0.472667,0.54019 0.347266,0.19293 1.003212,0.19293 0.270095,0 0.704177,-0.11576 0.443729,-0.11575 0.617361,-0.21222 h 0.289389 z"
         transform="translate(0,-259.56143)" />
      <path
         inkscape:connector-curvature="0"
         id="filling-st_a_y"
         style="font-style:normal;font-variant:normal;font-weight:bold;font-stretch:normal;font-size:19.75555611px;line-height:1.25;font-family:sans-serif;-inkscape-font-specification:'sans-serif Bold';letter-spacing:0px;word-spacing:0px;display:inline;fill:url(#Color1);fill-opacity:1;stroke:none;stroke-width:0.66145831;stroke-linecap:butt;stroke-linejoin:bevel;stroke-miterlimit:4;stroke-dasharray:none;stroke-opacity:1"
         d="m 50.003304,274.19635 v -2.25723 q -0.704178,0.0579 -1.524111,0.16399 -0.819932,0.0965 -1.244368,0.23151 -0.520899,0.16399 -0.80064,0.48231 -0.270096,0.30868 -0.270096,0.81994 0,0.33761 0.05788,0.54983 0.05788,0.21222 0.289388,0.40515 0.221864,0.19292 0.530544,0.28938 0.308681,0.0868 0.964627,0.0868 0.520899,0 1.051443,-0.21222 0.540191,-0.21222 0.945335,-0.55948 z m 0,1.67845 q -0.279742,0.21222 -0.694532,0.51125 -0.414789,0.29904 -0.781347,0.47267 -0.511253,0.23151 -1.06109,0.33762 -0.549837,0.11575 -1.205783,0.11575 -1.543403,0 -2.5852,-0.95498 -1.041797,-0.95498 -1.041797,-2.4405 0,-1.18649 0.530545,-1.9389 0.530545,-0.75241 1.504818,-1.18649 0.964626,-0.43409 2.392274,-0.61736 1.427648,-0.18328 2.961404,-0.2701 v -0.0579 q 0,-0.8971 -0.733116,-1.23472 -0.733117,-0.34727 -2.160764,-0.34727 -0.858518,0 -1.832791,0.30868 -0.974273,0.29904 -1.398709,0.46303 h -0.318327 v -2.61414 q 0.549838,-0.1447 1.78456,-0.33762 1.244368,-0.20257 2.488737,-0.20257 2.961404,0 4.273296,0.91639 1.321539,0.90675 1.321539,2.8553 v 7.36975 h -3.443717 z"
         transform="translate(0,-259.56143)" />
      <path
         inkscape:connector-curvature="0"
         id="filling-sta_y_"
         style="font-style:normal;font-variant:normal;font-weight:bold;font-stretch:normal;font-size:19.75555611px;line-height:1.25;font-family:sans-serif;-inkscape-font-specification:'sans-serif Bold';letter-spacing:0px;word-spacing:0px;display:inline;fill:url(#Color0);fill-opacity:1;stroke:none;stroke-width:0.66145831;stroke-linecap:butt;stroke-linejoin:bevel;stroke-miterlimit:4;stroke-dasharray:none;stroke-opacity:1"
         d="m 60.780594,273.19314 2.469444,-7.00319 h 3.569119 l -6.019271,14.80702 h -3.762044 l 1.717036,-4.05144 -4.215419,-10.75558 h 3.646289 z"
         transform="translate(0,-259.56143)" />
    </g>
    <g
       id="fillings-colorful">
      <path
         inkscape:connector-curvature="0"
         id="filling-_c_olorful"
         style="font-style:normal;font-variant:normal;font-weight:bold;font-stretch:normal;font-size:19.75555611px;line-height:1.25;font-family:sans-serif;-inkscape-font-specification:'sans-serif Bold';letter-spacing:0px;word-spacing:0px;display:inline;fill:url(#Color1);fill-opacity:1;stroke:none;stroke-width:0.66145831;stroke-linecap:butt;stroke-linejoin:bevel;stroke-miterlimit:4;stroke-dasharray:none;stroke-opacity:1"
         d="m 9.954343,294.23689 q -1.6012805,0 -2.9614042,-0.47266 -1.3504775,-0.47267 -2.3247505,-1.40836 -0.974273,-0.93569 -1.514464,-2.3344 -0.5305447,-1.39871 -0.5305447,-3.2315 0,-1.70739 0.5112521,-3.09645 0.5112522,-1.38906 1.4855253,-2.38263 0.9356879,-0.95498 2.3151042,-1.47587 1.3890625,-0.5209 3.028928,-0.5209 0.9067488,0 1.6302188,0.10611 0.733117,0.0965 1.350478,0.26044 0.6463,0.18328 1.167198,0.41479 0.530545,0.22187 0.926042,0.41479 v 3.48231 H 14.61349 q -0.270095,-0.23151 -0.684885,-0.54984 -0.405143,-0.31833 -0.926041,-0.62701 -0.530545,-0.30868 -1.147906,-0.5209 -0.617361,-0.21221 -1.321539,-0.21221 -0.7813477,0 -1.4855252,0.2508 -0.7041775,0.24116 -1.3022461,0.81028 -0.5691298,0.54984 -0.9260417,1.45659 -0.3472657,0.90675 -0.3472657,2.19935 0,1.35048 0.3762045,2.25723 0.3858507,0.90675 0.9646267,1.42764 0.5884224,0.53055 1.3118924,0.76206 0.7234701,0.22186 1.4276481,0.22186 0.675238,0 1.331184,-0.20257 0.665593,-0.20257 1.225076,-0.54983 0.472668,-0.27975 0.877811,-0.59807 0.405143,-0.31833 0.665592,-0.54984 h 0.385851 v 3.43407 q -0.540191,0.24116 -1.032151,0.45338 -0.491959,0.21221 -1.03215,0.36655 -0.704178,0.20257 -1.321539,0.30868 -0.617361,0.10611 -1.697743,0.10611 z"
         transform="translate(0,-259.56143)" />
      <path
         inkscape:connector-curvature="0"
         id="filling-c_o_lorful"
         style="font-style:normal;font-variant:normal;font-weight:bold;font-stretch:normal;font-size:19.75555611px;line-height:1.25;font-family:sans-serif;-inkscape-font-specification:'sans-serif Bold';letter-spacing:0px;word-spacing:0px;display:inline;fill:url(#Color2);fill-opacity:1;stroke:none;stroke-width:0.66145831;stroke-linecap:butt;stroke-linejoin:bevel;stroke-miterlimit:4;stroke-dasharray:none;stroke-opacity:1"
         d="m 29.158456,288.54559 q 0,2.67202 -1.562695,4.21542 -1.553049,1.53376 -4.369759,1.53376 -2.81671,0 -4.379406,-1.53376 -1.553049,-1.5434 -1.553049,-4.21542 0,-2.6913 1.562695,-4.22506 1.572342,-1.53376 4.36976,-1.53376 2.836002,0 4.379405,1.54341 1.553049,1.5434 1.553049,4.21541 z m -4.273296,2.63344 q 0.337619,-0.41479 0.501606,-0.99357 0.173632,-0.58842 0.173632,-1.62057 0,-0.95498 -0.173632,-1.60128 -0.173633,-0.6463 -0.482314,-1.03215 -0.30868,-0.3955 -0.742762,-0.55949 -0.434082,-0.16398 -0.935688,-0.16398 -0.501606,0 -0.897103,0.13504 -0.385851,0.13505 -0.742763,0.54019 -0.318327,0.37621 -0.511252,1.03216 -0.183279,0.65594 -0.183279,1.64951 0,0.88745 0.163986,1.5434 0.163987,0.6463 0.482314,1.0418 0.30868,0.3762 0.733116,0.54983 0.434082,0.17364 0.98392,0.17364 0.472667,0 0.897102,-0.15434 0.434082,-0.16399 0.733117,-0.54019 z"
         transform="translate(0,-259.56143)" />
      <path
         inkscape:connector-curvature="0"
         id="filling-co_l_orful"
         style="font-style:normal;font-variant:normal;font-weight:bold;font-stretch:normal;font-size:19.75555611px;line-height:1.25;font-family:sans-serif;-inkscape-font-specification:'sans-serif Bold';letter-spacing:0px;word-spacing:0px;display:inline;fill:url(#Color1);fill-opacity:1;stroke:none;stroke-width:0.66145831;stroke-linecap:butt;stroke-linejoin:bevel;stroke-miterlimit:4;stroke-dasharray:none;stroke-opacity:1"
         d="m 34.639143,293.95715 h -3.472657 v -15.00959 h 3.472657 z"
         transform="translate(0,-259.56143)" />
      <path
         inkscape:connector-curvature="0"
         id="filling-col_o_rful"
         style="font-style:normal;font-variant:normal;font-weight:bold;font-stretch:normal;font-size:19.75555611px;line-height:1.25;font-family:sans-serif;-inkscape-font-specification:'sans-serif Bold';letter-spacing:0px;word-spacing:0px;display:inline;fill:url(#Color0);fill-opacity:1;stroke:none;stroke-width:0.66145831;stroke-linecap:butt;stroke-linejoin:bevel;stroke-miterlimit:4;stroke-dasharray:none;stroke-opacity:1"
         d="m 48.542789,288.54559 q 0,2.67202 -1.562695,4.21542 -1.553049,1.53376 -4.36976,1.53376 -2.81671,0 -4.379405,-1.53376 -1.553049,-1.5434 -1.553049,-4.21542 0,-2.6913 1.562695,-4.22506 1.572342,-1.53376 4.369759,-1.53376 2.836003,0 4.379406,1.54341 1.553049,1.5434 1.553049,4.21541 z m -4.273297,2.63344 q 0.33762,-0.41479 0.501606,-0.99357 0.173633,-0.58842 0.173633,-1.62057 0,-0.95498 -0.173633,-1.60128 -0.173633,-0.6463 -0.482313,-1.03215 -0.308681,-0.3955 -0.742763,-0.55949 -0.434082,-0.16398 -0.935688,-0.16398 -0.501606,0 -0.897103,0.13504 -0.38585,0.13505 -0.742762,0.54019 -0.318327,0.37621 -0.511252,1.03216 -0.183279,0.65594 -0.183279,1.64951 0,0.88745 0.163986,1.5434 0.163987,0.6463 0.482314,1.0418 0.30868,0.3762 0.733116,0.54983 0.434082,0.17364 0.983919,0.17364 0.472667,0 0.897103,-0.15434 0.434082,-0.16399 0.733116,-0.54019 z"
         transform="translate(0,-259.56143)" />
      <path
         inkscape:connector-curvature="0"
         id="filling-colo_r_ful"
         style="font-style:normal;font-variant:normal;font-weight:bold;font-stretch:normal;font-size:19.75555611px;line-height:1.25;font-family:sans-serif;-inkscape-font-specification:'sans-serif Bold';letter-spacing:0px;word-spacing:0px;display:inline;fill:url(#Color2);fill-opacity:1;stroke:none;stroke-width:0.66145831;stroke-linecap:butt;stroke-linejoin:bevel;stroke-miterlimit:4;stroke-dasharray:none;stroke-opacity:1"
         d="m 58.902879,286.43306 h -0.30868 q -0.221865,-0.0772 -0.713824,-0.11575 -0.49196,-0.0386 -0.819933,-0.0386 -0.742763,0 -1.311892,0.0965 -0.56913,0.0965 -1.225076,0.32797 v 7.25399 h -3.472657 v -10.83275 h 3.472657 v 1.59164 q 1.147905,-0.98392 1.996777,-1.30225 0.848872,-0.32797 1.562695,-0.32797 0.183279,0 0.41479,0.01 0.23151,0.01 0.405143,0.0289 z"
         transform="translate(0,-259.56143)" />
      <path
         inkscape:connector-curvature="0"
         id="filling-color_f_ul"
         style="font-style:normal;font-variant:normal;font-weight:bold;font-stretch:normal;font-size:19.75555611px;line-height:1.25;font-family:sans-serif;-inkscape-font-specification:'sans-serif Bold';letter-spacing:0px;word-spacing:0px;display:inline;fill:url(#Color1);fill-opacity:1;stroke:none;stroke-width:0.66145831;stroke-linecap:butt;stroke-linejoin:bevel;stroke-miterlimit:4;stroke-dasharray:none;stroke-opacity:1"
         d="m 69.212495,281.49417 h -0.26045 q -0.23151,-0.0675 -0.607715,-0.15434 -0.366558,-0.0868 -0.790993,-0.0868 -1.022505,0 -1.389063,0.36656 -0.356912,0.36656 -0.356912,1.418 v 0.0868 h 2.681662 v 2.35369 h -2.565907 v 8.47907 h -3.472656 v -8.47907 h -1.485525 v -2.35369 h 1.485525 v -0.29903 q 0,-1.98713 1.051443,-2.9807 1.06109,-0.99357 3.202561,-0.99357 0.771701,0 1.398709,0.0579 0.627007,0.0482 1.109321,0.13505 z"
         transform="translate(0,-259.56143)" />
      <path
         inkscape:connector-curvature="0"
         id="filling-colorf_u_l"
         style="font-style:normal;font-variant:normal;font-weight:bold;font-stretch:normal;font-size:19.75555611px;line-height:1.25;font-family:sans-serif;-inkscape-font-specification:'sans-serif Bold';letter-spacing:0px;word-spacing:0px;display:inline;fill:url(#Color0);fill-opacity:1;stroke:none;stroke-width:0.66145831;stroke-linecap:butt;stroke-linejoin:bevel;stroke-miterlimit:4;stroke-dasharray:none;stroke-opacity:1"
         d="m 81.46856,293.95715 h -3.472656 v -1.19614 q -0.964627,0.73312 -1.765267,1.11897 -0.80064,0.37621 -1.909961,0.37621 -1.794206,0 -2.768479,-1.03216 -0.964627,-1.03215 -0.964627,-3.04822 v -7.05142 h 3.491949 v 5.37297 q 0,0.81994 0.04823,1.36977 0.05788,0.54019 0.250802,0.89711 0.18328,0.35691 0.549838,0.52089 0.376204,0.16399 1.041797,0.16399 0.443728,0 0.983919,-0.16399 0.540191,-0.16398 1.041797,-0.48231 v -7.67843 h 3.472656 z"
         transform="translate(0,-259.56143)" />
      <path
         inkscape:connector-curvature="0"
         id="filling-colorfu_l_"
         style="font-style:normal;font-variant:normal;font-weight:bold;font-stretch:normal;font-size:19.75555611px;line-height:1.25;font-family:sans-serif;-inkscape-font-specification:'sans-serif Bold';letter-spacing:0px;word-spacing:0px;display:inline;fill:url(#Color2);fill-opacity:1;stroke:none;stroke-width:0.66145831;stroke-linecap:butt;stroke-linejoin:bevel;stroke-miterlimit:4;stroke-dasharray:none;stroke-opacity:1"
         d="M 87.93059,293.95715 H 84.457933 V 278.94756 H 87.93059 Z"
         transform="translate(0,-259.56143)" />
    </g>
  </g>
  <g
     inkscape:groupmode="layer"
     id="layer-outlines"
     inkscape:label="Outlines"
     style="display:inline"
     sodipodi:insensitive="true">
    <g
       transform="translate(0,-259.56143)"
       style="display:inline"
       id="outlines-stay">
      <path
         inkscape:connector-curvature="0"
         id="outline-_s_tay"
         d="m 26.332031,262.06836 c -1.933903,0 -3.553212,0.43818 -4.822265,1.33398 -1.26351,0.88989 -1.933594,2.10286 -1.933594,3.53907 0,1.0551 0.285408,1.97543 0.861328,2.71289 l 0.002,0.002 c 0.589549,0.73872 1.523191,1.2944 2.769531,1.69922 0.541872,0.17842 1.117963,0.32714 1.728516,0.44531 h 0.0039 c 0.599127,0.10836 1.165528,0.22645 1.699219,0.35352 0.481136,0.11427 0.82019,0.27685 1.025391,0.45703 l 0.0059,0.006 c 0.211784,0.17648 0.287109,0.33603 0.287109,0.55664 0,0.28052 -0.06632,0.42921 -0.173828,0.52929 l -0.0059,0.004 c -0.14363,0.1385 -0.337236,0.26235 -0.587891,0.36524 -9.74e-4,4e-4 -9.77e-4,0.002 -0.002,0.002 -0.19123,0.0737 -0.462063,0.13364 -0.806641,0.16992 -0.359546,0.0379 -0.645389,0.0547 -0.851562,0.0547 -0.832655,0 -1.709325,-0.15531 -2.630859,-0.47266 h -0.002 c -0.910702,-0.31616 -1.731315,-0.76832 -2.466797,-1.35547 l -0.207032,-0.0723 h -0.404297 l -0.330078,0.33203 v 3.44336 l 0.203125,0.30469 c 0.789105,0.32879 1.632672,0.60238 2.529297,0.81836 h 0.002 c 0.919138,0.21313 1.980678,0.3164 3.189453,0.3164 2.105068,0 3.809068,-0.45003 5.078126,-1.38476 1.27013,-0.93732 1.937499,-2.21221 1.9375,-3.72071 0,-1.04801 -0.2843,-1.93953 -0.867188,-2.62304 -0.57422,-0.68764 -1.443362,-1.20523 -2.582031,-1.57813 h -0.002 c -0.568087,-0.18283 -1.102103,-0.32796 -1.603516,-0.43359 h -0.002 c -0.481856,-0.10279 -0.98713,-0.2092 -1.513672,-0.31836 h -0.002 c -0.78231,-0.16291 -1.305608,-0.35368 -1.513672,-0.4961 -0.211154,-0.15015 -0.294922,-0.31208 -0.294922,-0.60742 0,-0.17166 0.0484,-0.30074 0.179688,-0.4414 l 0.0039,-0.004 c 0.146652,-0.16236 0.315222,-0.27689 0.519531,-0.35547 l 0.0078,-0.004 c 0.256689,-0.10499 0.519058,-0.174 0.792968,-0.20898 h 0.0059 c 0.293108,-0.0427 0.586297,-0.0645 0.878906,-0.0645 0.834874,0 1.648826,0.14948 2.449219,0.45117 l 0.002,0.002 c 0.815255,0.29872 1.493414,0.667 2.039062,1.10352 l 0.207032,0.0742 h 0.396484 l 0.330078,-0.33203 v -3.3086 l -0.205078,-0.30664 c -0.699836,-0.2866 -1.520528,-0.51807 -2.460938,-0.70117 -0.941245,-0.19089 -1.896197,-0.28711 -2.863281,-0.28711 z m 0,0.66211 c 0.923585,0 1.832492,0.0894 2.730469,0.27148 l 0.0039,0.002 c 0.829233,0.16123 1.519664,0.37186 2.132813,0.60742 v 2.72461 c -0.587937,-0.44723 -1.267043,-0.83279 -2.080078,-1.13086 h -0.002 c -0.871049,-0.32808 -1.766017,-0.49414 -2.679688,-0.49414 -0.324752,0 -0.650356,0.025 -0.974609,0.0723 -0.325746,0.0421 -0.642271,0.12599 -0.947266,0.25 -0.295575,0.11369 -0.556733,0.29107 -0.769531,0.52539 -4.31e-4,4.7e-4 4.3e-4,10e-4 0,0.002 -0.22804,0.24499 -0.359375,0.56129 -0.359375,0.89062 0,0.46351 0.204644,0.88507 0.572265,1.14649 l 0.0039,0.002 c 0.37163,0.25601 0.939952,0.43064 1.761718,0.60156 0.526761,0.10921 1.030084,0.21561 1.511719,0.31836 h 0.002 c 0.475018,0.1 0.987611,0.23923 1.53711,0.41602 1.060678,0.34735 1.811719,0.81311 2.279297,1.37304 l 0.002,0.002 c 0.470606,0.55096 0.71289,1.26562 0.71289,2.19726 0,1.32108 -0.534917,2.3499 -1.669922,3.1875 -1.123216,0.82731 -2.674874,1.25781 -4.685547,1.25781 -1.169148,0 -2.182018,-0.10283 -3.037109,-0.30078 h -0.0039 c -0.791571,-0.19084 -1.524126,-0.43733 -2.222656,-0.71679 v -2.875 c 0.764429,0.58947 1.602066,1.06757 2.533203,1.39062 0.981266,0.33814 1.93172,0.50977 2.847656,0.50977 0.243985,0 0.548306,-0.0193 0.921875,-0.0586 0.385974,-0.0406 0.710846,-0.10925 0.982422,-0.21484 l 0.0059,-0.002 c 0.311494,-0.12744 0.577855,-0.29202 0.792969,-0.49805 0.265486,-0.24718 0.386719,-0.61251 0.386719,-1.01367 0,-0.4087 -0.196339,-0.78896 -0.523438,-1.0625 -0.321698,-0.2806 -0.759529,-0.47014 -1.304687,-0.59961 -0.545389,-0.12985 -1.122201,-0.24929 -1.730469,-0.35938 l -0.0039,-0.002 c -0.583931,-0.11319 -1.131079,-0.25345 -1.642578,-0.42187 l -0.002,-0.002 c -1.169012,-0.3793 -1.977419,-0.8829 -2.455078,-1.48047 -0.478738,-0.61301 -0.720703,-1.36623 -0.720703,-2.30468 0,-1.23904 0.523581,-2.20306 1.652344,-2.99805 h 0.002 c 1.136084,-0.80194 2.604882,-1.21289 4.439453,-1.21289 z"
         style="color:#000000;font-style:normal;font-variant:normal;font-weight:bold;font-stretch:normal;font-size:19.75555611px;line-height:1.25;font-family:sans-serif;-inkscape-font-specification:'sans-serif Bold';font-variant-ligatures:normal;font-variant-position:normal;font-variant-caps:normal;font-variant-numeric:normal;font-variant-alternates:normal;font-feature-settings:normal;text-indent:0;text-align:start;text-decoration:none;text-decoration-line:none;text-decoration-style:solid;text-decoration-color:#000000;letter-spacing:0px;word-spacing:0px;text-transform:none;writing-mode:lr-tb;direction:ltr;text-orientation:mixed;dominant-baseline:auto;baseline-shift:baseline;text-anchor:start;white-space:normal;shape-padding:0;clip-rule:nonzero;display:inline;overflow:visible;visibility:visible;opacity:1;isolation:auto;mix-blend-mode:normal;color-interpolation:sRGB;color-interpolation-filters:linearRGB;solid-color:#000000;solid-opacity:1;vector-effect:none;fill:url(#Black);fill-opacity:1;fill-rule:nonzero;stroke:none;stroke-width:0.66145831;stroke-linecap:butt;stroke-linejoin:bevel;stroke-miterlimit:4;stroke-dasharray:none;stroke-dashoffset:0;stroke-opacity:1;color-rendering:auto;image-rendering:auto;shape-rendering:auto;text-rendering:auto;enable-background:accumulate" />
      <path
         inkscape:connector-curvature="0"
         id="outline-s_t_ay"
         d="m 34.65625,262.76367 -0.330078,0.33008 v 2.76563 h -1.097656 l -0.330078,0.33007 v 2.35352 l 0.330078,0.33203 h 1.097656 v 4.73242 c 0,1.37934 0.344673,2.43176 1.101562,3.0625 h 0.002 c 0.747482,0.61685 1.835369,0.89649 3.230468,0.89649 0.613535,0 1.135428,-0.0293 1.574219,-0.0899 0.431042,-0.053 0.840329,-0.13007 1.228516,-0.23047 l 0.248047,-0.32031 v -2.38281 l -0.332032,-0.33008 H 41.08989 l -0.160156,0.041 c -0.06029,0.0335 -0.256716,0.10748 -0.541016,0.18164 h -0.002 c -0.272887,0.0728 -0.484373,0.10547 -0.617188,0.10547 -0.401985,0 -0.682928,-0.0656 -0.83789,-0.1504 -0.16883,-0.10254 -0.269513,-0.2187 -0.332032,-0.375 l -0.0039,-0.008 c -0.07776,-0.18138 -0.121358,-0.3913 -0.126953,-0.63867 -0.0063,-0.27962 -0.0098,-0.60877 -0.0098,-0.98633 V 268.875 h 2.919922 l 0.332032,-0.33203 v -2.35352 l -0.332032,-0.33007 h -2.919922 v -2.76563 l -0.330078,-0.33008 z m 0.330078,0.66016 h 2.8125 v 2.76562 l 0.330078,0.33203 h 2.919922 v 1.69141 h -2.919922 l -0.330078,0.33008 v 3.83984 c 0,0.38128 0.0033,0.71565 0.0098,1.00196 0.0071,0.3157 0.06453,0.61006 0.177734,0.87695 0.116857,0.29214 0.331468,0.53443 0.609375,0.70117 l 0.0098,0.004 c 0.308788,0.17155 0.69434,0.23633 1.164062,0.23632 0.226764,0 0.482197,-0.0457 0.78711,-0.12695 0.218239,-0.0569 0.349404,-0.11515 0.492187,-0.17383 v 1.75 c -0.288226,0.0653 -0.579303,0.12893 -0.896484,0.16797 h -0.0039 c -0.396555,0.0549 -0.894336,0.084 -1.488282,0.084 -1.304945,0 -2.231238,-0.26838 -2.808594,-0.74414 -0.555002,-0.4625 -0.865234,-1.28257 -0.865234,-2.55274 v -5.06445 l -0.330078,-0.33008 h -1.097656 v -1.69141 h 1.097656 l 0.330078,-0.33203 z"
         style="color:#000000;font-style:normal;font-variant:normal;font-weight:bold;font-stretch:normal;font-size:19.75555611px;line-height:1.25;font-family:sans-serif;-inkscape-font-specification:'sans-serif Bold';font-variant-ligatures:normal;font-variant-position:normal;font-variant-caps:normal;font-variant-numeric:normal;font-variant-alternates:normal;font-feature-settings:normal;text-indent:0;text-align:start;text-decoration:none;text-decoration-line:none;text-decoration-style:solid;text-decoration-color:#000000;letter-spacing:0px;word-spacing:0px;text-transform:none;writing-mode:lr-tb;direction:ltr;text-orientation:mixed;dominant-baseline:auto;baseline-shift:baseline;text-anchor:start;white-space:normal;shape-padding:0;clip-rule:nonzero;display:inline;overflow:visible;visibility:visible;opacity:1;isolation:auto;mix-blend-mode:normal;color-interpolation:sRGB;color-interpolation-filters:linearRGB;solid-color:#000000;solid-opacity:1;vector-effect:none;fill:url(#Black);fill-opacity:1;fill-rule:nonzero;stroke:none;stroke-width:0.66145831;stroke-linecap:butt;stroke-linejoin:bevel;stroke-miterlimit:4;stroke-dasharray:none;stroke-dashoffset:0;stroke-opacity:1;color-rendering:auto;image-rendering:auto;shape-rendering:auto;text-rendering:auto;enable-background:accumulate" />
      <g
         id="outline-st_a_y">
        <path
           style="color:#000000;font-style:normal;font-variant:normal;font-weight:bold;font-stretch:normal;font-size:19.75555611px;line-height:1.25;font-family:sans-serif;-inkscape-font-specification:'sans-serif Bold';font-variant-ligatures:normal;font-variant-position:normal;font-variant-caps:normal;font-variant-numeric:normal;font-variant-alternates:normal;font-feature-settings:normal;text-indent:0;text-align:start;text-decoration:none;text-decoration-line:none;text-decoration-style:solid;text-decoration-color:#000000;letter-spacing:0px;word-spacing:0px;text-transform:none;writing-mode:lr-tb;direction:ltr;text-orientation:mixed;dominant-baseline:auto;baseline-shift:baseline;text-anchor:start;white-space:normal;shape-padding:0;clip-rule:nonzero;display:inline;overflow:visible;visibility:visible;opacity:1;isolation:auto;mix-blend-mode:normal;color-interpolation:sRGB;color-interpolation-filters:linearRGB;solid-color:#000000;solid-opacity:1;vector-effect:none;fill:url(#White);fill-opacity:1;fill-rule:nonzero;stroke:none;stroke-width:2.5;stroke-linecap:butt;stroke-linejoin:bevel;stroke-miterlimit:4;stroke-dasharray:none;stroke-dashoffset:0;stroke-opacity:1;color-rendering:auto;image-rendering:auto;shape-rendering:auto;text-rendering:auto;enable-background:accumulate"
           d="M 203.25391,45.333984 200.75,47.369141 v 17.375 h -10.51172 v -3.085938 l -2.00781,-0.996094 c -0.69309,0.525789 -1.55817,1.162713 -2.59766,1.91211 -0.99145,0.714769 -1.90413,1.263831 -2.73828,1.660156 -0.002,9.79e-4 -0.006,-9.75e-4 -0.008,0 -0.003,0.0013 -0.005,0.0063 -0.008,0.0078 -1.19551,0.539977 -2.42816,0.933711 -3.71289,1.18164 l -0.0234,0.0059 c -0.24966,0.05256 -0.50867,0.09634 -0.76953,0.138671 l -3.4043,2.767579 c 1.67691,-0.0075 3.24547,-0.158465 4.69141,-0.462891 1.47253,-0.286035 2.89849,-0.737459 4.26757,-1.357422 l 0.014,-0.01565 c 1.00966,-0.478258 2.05861,-1.107977 3.15234,-1.896484 0.25466,-0.18361 0.40767,-0.301746 0.64258,-0.472657 v 1.859375 l 1.25586,1.25586 h 13.01367 l 1.24805,-1.25586 z"
           transform="matrix(0.26458333,0,0,0.26458333,0,259.56143)"
           id="outline-st_a_y-white"
           inkscape:connector-curvature="0" />
        <path
           style="color:#000000;font-style:normal;font-variant:normal;font-weight:bold;font-stretch:normal;font-size:19.75555611px;line-height:1.25;font-family:sans-serif;-inkscape-font-specification:'sans-serif Bold';font-variant-ligatures:normal;font-variant-position:normal;font-variant-caps:normal;font-variant-numeric:normal;font-variant-alternates:normal;font-feature-settings:normal;text-indent:0;text-align:start;text-decoration:none;text-decoration-line:none;text-decoration-style:solid;text-decoration-color:#000000;letter-spacing:0px;word-spacing:0px;text-transform:none;writing-mode:lr-tb;direction:ltr;text-orientation:mixed;dominant-baseline:auto;baseline-shift:baseline;text-anchor:start;white-space:normal;shape-padding:0;clip-rule:nonzero;display:inline;overflow:visible;visibility:visible;opacity:1;isolation:auto;mix-blend-mode:normal;color-interpolation:sRGB;color-interpolation-filters:linearRGB;solid-color:#000000;solid-opacity:1;vector-effect:none;fill:url(#Black);fill-opacity:1;fill-rule:nonzero;stroke:none;stroke-width:2.5;stroke-linecap:butt;stroke-linejoin:bevel;stroke-miterlimit:4;stroke-dasharray:none;stroke-dashoffset:0;stroke-opacity:1;color-rendering:auto;image-rendering:auto;shape-rendering:auto;text-rendering:auto;enable-background:accumulate"
           d="m 180.85547,22.636719 c -3.20325,0 -6.40288,0.262153 -9.60352,0.783203 l 0.008,-0.0078 c -3.13025,0.489101 -5.39716,0.918249 -6.87305,1.306641 l -0.92969,1.210938 v 9.876953 l 1.24805,1.248047 h 1.20312 l 0.44922,-0.08203 c 1.00778,-0.38937 2.76281,-0.971098 5.20508,-1.720703 l 0.0156,-0.0059 c 2.35409,-0.745848 4.5335,-1.107422 6.54688,-1.107422 3.49587,0 6.06929,0.454695 7.63281,1.195312 l 0.008,0.0078 c 1.10034,0.506732 1.30444,1.542662 1.53516,2.650391 -3.27534,0.218532 -6.50508,0.480938 -9.58984,0.876953 -3.68558,0.473147 -6.81552,1.268253 -9.39649,2.429687 -2.62037,1.16852 -4.71521,2.811922 -6.19336,4.908203 -1.51513,2.148733 -2.23632,4.87098 -2.23632,8.046875 0,4.035266 1.47685,7.518169 4.33984,10.142578 2.85166,2.61402 6.46853,3.941407 10.61523,3.941407 0.0437,0 0.0854,-0.0018 0.12891,-0.002 l 3.4043,-2.767579 c -1.08427,0.175964 -2.26023,0.267579 -3.53321,0.267579 -3.63107,0 -6.52744,-1.078865 -8.92578,-3.277344 -2.38701,-2.188093 -3.52734,-4.853839 -3.52734,-8.304688 0,-2.803268 0.61301,-4.962531 1.77148,-6.605468 1.19439,-1.693852 2.88717,-3.041738 5.17383,-4.060547 l 0.008,-0.0078 c 2.28015,-1.026066 5.18059,-1.778053 8.68946,-2.228516 3.56587,-0.45778 7.26468,-0.794539 11.10156,-1.011718 l 1.18164,-1.248047 v -0.220703 c 0,-2.594946 -1.26459,-4.765371 -3.48438,-5.794922 -0.002,-8.35e-4 -0.006,8.31e-4 -0.008,0 -2.13038,-1.007584 -4.99979,-1.433594 -8.69531,-1.433594 -2.31301,0 -4.75295,0.416856 -7.30859,1.226563 -2.22574,0.683361 -3.72669,1.181547 -4.85743,1.601562 v -7.515625 c 1.33821,-0.312756 3.02944,-0.6556 5.6836,-1.070312 h 0.008 c 3.0702,-0.499801 6.13749,-0.751954 9.20508,-0.751954 7.33287,0 12.49198,1.184066 15.43555,3.240235 l 0.008,0.0078 c 2.98543,2.048399 4.45117,5.130679 4.45117,9.757813 v 9.230469 l 2.50391,-2.035157 v -7.195312 c 0,-5.192317 -1.86282,-9.297313 -5.53711,-11.81836 -3.66765,-2.559409 -9.2721,-3.683593 -16.85938,-3.683593 z m 8.0332,22.898437 c -1.79698,0.147704 -3.73591,0.359407 -5.81836,0.628906 l 0.0156,-0.0078 c -2.10835,0.24805 -3.73033,0.544958 -4.93946,0.929688 -1.47234,0.463517 -2.69933,1.174432 -3.58789,2.185546 v 0.0078 c -0.90576,1.03516 -1.32812,2.411603 -1.32812,3.919922 0,0.922125 0.0677,1.709184 0.25781,2.40625 0.23006,0.843477 0.77544,1.551715 1.48438,2.146484 0.002,0.0022 0.005,0.0055 0.008,0.0078 0.69624,0.603465 1.52382,1.048583 2.44336,1.335937 l 0.0371,0.0078 c 0.99993,0.281234 2.27058,0.376953 3.97851,0.376953 1.47989,0 2.972,-0.307288 4.4375,-0.892578 1.4781,-0.580683 2.79205,-1.354407 3.92578,-2.326172 l 0.43555,-0.951172 v -8.527344 z m -1.15234,2.636719 v 6.451172 c -0.82176,0.638547 -1.7002,1.216276 -2.77539,1.638672 l -0.008,0.0078 c -1.20583,0.482332 -2.37092,0.708985 -3.51367,0.708985 -1.58346,0 -2.71614,-0.126894 -3.27734,-0.28125 -0.6277,-0.197556 -1.13289,-0.470602 -1.55078,-0.833985 l -0.0215,-0.01563 c -0.44952,-0.374589 -0.62767,-0.681061 -0.6875,-0.90039 -0.10155,-0.372397 -0.17773,-0.968784 -0.17773,-1.748047 0,-1.068068 0.26147,-1.753038 0.7168,-2.273438 0.52119,-0.591318 1.30889,-1.093007 2.45898,-1.455078 l 0.008,-0.0078 c 0.92977,-0.295824 2.44125,-0.580295 4.46485,-0.81836 h 0.0156 c 1.56165,-0.202091 2.95876,-0.341015 4.34766,-0.472656 z"
           transform="matrix(0.26458333,0,0,0.26458333,0,259.56143)"
           id="outline-st_a_y-black"
           inkscape:connector-curvature="0" />
      </g>
      <g
         id="outline-sta_y_">
        <path
           style="color:#000000;font-style:normal;font-variant:normal;font-weight:bold;font-stretch:normal;font-size:19.75555611px;line-height:1.25;font-family:sans-serif;-inkscape-font-specification:'sans-serif Bold';font-variant-ligatures:normal;font-variant-position:normal;font-variant-caps:normal;font-variant-numeric:normal;font-variant-alternates:normal;font-feature-settings:normal;text-indent:0;text-align:start;text-decoration:none;text-decoration-line:none;text-decoration-style:solid;text-decoration-color:#000000;letter-spacing:0px;word-spacing:0px;text-transform:none;writing-mode:lr-tb;direction:ltr;text-orientation:mixed;dominant-baseline:auto;baseline-shift:baseline;text-anchor:start;white-space:normal;shape-padding:0;clip-rule:nonzero;display:inline;overflow:visible;visibility:visible;opacity:1;isolation:auto;mix-blend-mode:normal;color-interpolation:sRGB;color-interpolation-filters:linearRGB;solid-color:#000000;solid-opacity:1;vector-effect:none;fill:url(#White);fill-opacity:1;fill-rule:nonzero;stroke:none;stroke-width:2.5;stroke-linecap:butt;stroke-linejoin:bevel;stroke-miterlimit:4;stroke-dasharray:none;stroke-dashoffset:0;stroke-opacity:1;color-rendering:auto;image-rendering:auto;shape-rendering:auto;text-rendering:auto;enable-background:accumulate"
           d="m 239.05469,23.802734 -1.18164,0.833985 -8.17774,23.216797 -6.83789,-18.460938 -2.05273,1.667969 7.74609,20.896484 2.34766,-0.02148 9.04297,-25.630859 h 10.74804 l -21.73242,53.460937 h -11.49414 l 5.75,-13.576172 0.0156,-0.945312 -10.74414,-27.417969 -2.03516,1.65625 10.26953,26.205078 -6.29687,14.837891 1.15234,1.742187 h 14.22461 l 1.15039,-0.783203 22.75195,-55.960937 -1.16015,-1.720704 z"
           transform="matrix(0.26458333,0,0,0.26458333,0,259.56143)"
           id="outline-sta_y_-white"
           inkscape:connector-curvature="0" />
        <path
           style="color:#000000;font-style:normal;font-variant:normal;font-weight:bold;font-stretch:normal;font-size:19.75555611px;line-height:1.25;font-family:sans-serif;-inkscape-font-specification:'sans-serif Bold';font-variant-ligatures:normal;font-variant-position:normal;font-variant-caps:normal;font-variant-numeric:normal;font-variant-alternates:normal;font-feature-settings:normal;text-indent:0;text-align:start;text-decoration:none;text-decoration-line:none;text-decoration-style:solid;text-decoration-color:#000000;letter-spacing:0px;word-spacing:0px;text-transform:none;writing-mode:lr-tb;direction:ltr;text-orientation:mixed;dominant-baseline:auto;baseline-shift:baseline;text-anchor:start;white-space:normal;shape-padding:0;clip-rule:nonzero;display:inline;overflow:visible;visibility:visible;opacity:1;isolation:auto;mix-blend-mode:normal;color-interpolation:sRGB;color-interpolation-filters:linearRGB;solid-color:#000000;solid-opacity:1;vector-effect:none;fill:url(#Black);fill-opacity:1;fill-rule:nonzero;stroke:none;stroke-width:2.5;stroke-linecap:butt;stroke-linejoin:bevel;stroke-miterlimit:4;stroke-dasharray:none;stroke-dashoffset:0;stroke-opacity:1;color-rendering:auto;image-rendering:auto;shape-rendering:auto;text-rendering:auto;enable-background:accumulate"
           d="m 206.13281,23.802734 -1.16015,1.705078 5.47656,13.97461 2.03516,-1.65625 -4.51368,-11.519531 h 11.07227 l 1.76172,4.753906 2.05273,-1.667969 -1.76953,-4.777344 -1.17383,-0.8125 z"
           transform="matrix(0.26458333,0,0,0.26458333,0,259.56143)"
           id="outline-sta_y_-black"
           inkscape:connector-curvature="0" />
      </g>
    </g>
    <g
       transform="translate(0,-259.56143)"
       style="display:inline"
       id="outlines-colorful">
      <path
         inkscape:connector-curvature="0"
         id="outlines-_c_olorful"
         d="m 9.9648438,278.98242 c -1.1282622,0 -2.1803787,0.18068 -3.1464844,0.54297 -0.9584341,0.36192 -1.7741775,0.88203 -2.4335938,1.55469 -0.6832118,0.69674 -1.2050193,1.53404 -1.5605468,2.5 -0.3560063,0.96726 -0.53125,2.03771 -0.53125,3.20898 0,1.25377 0.1800962,2.37235 0.5507812,3.34961 l 0.00195,0.002 c 0.3752723,0.97169 0.9068791,1.79346 1.59375,2.45313 0.6845112,0.6574 1.5022208,1.15302 2.4433594,1.48242 h 0.00195 c 0.9447627,0.32832 1.9702511,0.49219 3.0703125,0.49219 0.7310821,0 1.3105901,-0.0351 1.7539061,-0.11133 0.425513,-0.0731 0.876084,-0.1785 1.355469,-0.31641 0.373126,-0.1066 0.730644,-0.23349 1.072266,-0.38085 0.329384,-0.14209 0.673878,-0.2938 1.035156,-0.45508 l 0.197266,-0.30274 v -3.43359 l -0.332032,-0.33008 h -0.384765 l -0.220703,0.082 c -0.166246,0.14778 -0.38385,0.32768 -0.650391,0.53711 -0.257974,0.20269 -0.538359,0.39463 -0.841797,0.57422 l -0.0059,0.004 c -0.347542,0.21571 -0.728423,0.38643 -1.146485,0.51367 h -0.002 c -0.406726,0.1256 -0.815336,0.1875 -1.232422,0.1875 -0.434718,0 -0.8765201,-0.0679 -1.330078,-0.20703 -0.4362394,-0.13999 -0.8282134,-0.36746 -1.1875,-0.69141 h -0.00195 c -0.3414987,-0.30734 -0.6362994,-0.73937 -0.8789062,-1.30859 -0.2285311,-0.55082 -0.3515625,-1.26125 -0.3515625,-2.13086 0,-0.83212 0.1134337,-1.5246 0.3261718,-2.08008 0.2241661,-0.56855 0.5073502,-1.01101 0.8457032,-1.33789 0.3680302,-0.34971 0.7593423,-0.59042 1.1796875,-0.73438 l 0.00391,-0.002 c 0.43303,-0.15423 0.8894882,-0.23047 1.3750002,-0.23047 0.436229,0 0.839827,0.0645 1.214844,0.19336 0.392499,0.13492 0.753915,0.29983 1.087891,0.49414 0.335671,0.19905 0.632532,0.40031 0.888671,0.60156 l 0.002,0.002 c 0.273313,0.20975 0.498459,0.39042 0.671876,0.53906 l 0.214843,0.0801 h 0.423828 l 0.332032,-0.33203 v -3.48242 l -0.185547,-0.29688 c -0.269525,-0.13147 -0.581964,-0.27113 -0.9375,-0.41992 l -0.0059,-0.002 c -0.362684,-0.16085 -0.763616,-0.30255 -1.205078,-0.42774 l -0.0059,-0.002 c -0.425557,-0.11301 -0.888338,-0.20174 -1.386719,-0.26758 -0.501942,-0.0736 -1.060334,-0.11133 -1.6777345,-0.11133 z m 0,0.66211 c 0.5915982,0 1.1193462,0.0357 1.5820312,0.10352 h 0.0039 c 0.476629,0.0627 0.912849,0.14686 1.308594,0.25195 0.415528,0.11812 0.790374,0.25232 1.119141,0.39844 l 0.0059,0.002 c 0.278001,0.11626 0.503462,0.22121 0.722656,0.32422 v 2.91992 c -0.167421,-0.13985 -0.345006,-0.28744 -0.576172,-0.46484 l 0.002,0.004 c -0.283404,-0.22267 -0.603128,-0.44031 -0.960937,-0.65234 l -0.0039,-0.002 c -0.373418,-0.21726 -0.774429,-0.39884 -1.205078,-0.54688 -0.448131,-0.15404 -0.927013,-0.23047 -1.429688,-0.23047 -0.5549606,0 -1.0869923,0.0902 -1.5917968,0.26953 -0.5177442,0.17732 -0.9950574,0.4748 -1.4238281,0.88282 l -0.00195,0.002 c -0.4199107,0.40568 -0.7523658,0.93322 -1.0039062,1.57227 l -0.00195,0.004 c -0.2502827,0.65352 -0.3691406,1.42506 -0.3691406,2.31641 0,0.93103 0.1292688,1.72658 0.4023438,2.38476 v 0.002 c 0.2716281,0.63832 0.6192126,1.15827 1.0488281,1.54492 0.4245782,0.38282 0.9042692,0.66327 1.4316406,0.83203 h 0.00391 c 0.5110689,0.15672 1.0212052,0.23633 1.5253902,0.23633 0.483232,0 0.959867,-0.0723 1.427735,-0.2168 0.467113,-0.14216 0.90002,-0.33644 1.296875,-0.58203 l 0.0059,-0.004 c 0.324424,-0.19235 0.627785,-0.39686 0.908203,-0.61718 0.207503,-0.16304 0.361667,-0.29613 0.515625,-0.42774 v 2.83399 c -0.285772,0.12682 -0.567528,0.25308 -0.832031,0.36718 -0.314324,0.13559 -0.645059,0.25239 -0.992188,0.35157 -0.459518,0.13219 -0.889473,0.23243 -1.287109,0.30078 -0.379831,0.0653 -0.931198,0.10156 -1.6406249,0.10156 -1.0349792,0 -1.9847801,-0.15318 -2.8535156,-0.45508 -0.8594981,-0.30082 -1.5905586,-0.7438 -2.2050781,-1.33398 C 4.2848441,291.52984 3.8079627,290.797 3.4630296,289.9045 v -0.002 c -0.3363017,-0.88732 -0.5097656,-1.92406 -0.5097656,-3.11328 0,-1.10525 0.1665243,-2.09565 0.4921875,-2.98047 0.326142,-0.88612 0.7943373,-1.63761 1.4101563,-2.26562 0.5875977,-0.59971 1.3158212,-1.06609 2.1953124,-1.39844 0.8859776,-0.33224 1.8558374,-0.5 2.9140626,-0.5 z"
         style="color:#000000;font-style:normal;font-variant:normal;font-weight:bold;font-stretch:normal;font-size:19.75555611px;line-height:1.25;font-family:sans-serif;-inkscape-font-specification:'sans-serif Bold';font-variant-ligatures:normal;font-variant-position:normal;font-variant-caps:normal;font-variant-numeric:normal;font-variant-alternates:normal;font-feature-settings:normal;text-indent:0;text-align:start;text-decoration:none;text-decoration-line:none;text-decoration-style:solid;text-decoration-color:#000000;letter-spacing:0px;word-spacing:0px;text-transform:none;writing-mode:lr-tb;direction:ltr;text-orientation:mixed;dominant-baseline:auto;baseline-shift:baseline;text-anchor:start;white-space:normal;shape-padding:0;clip-rule:nonzero;display:inline;overflow:visible;visibility:visible;opacity:1;isolation:auto;mix-blend-mode:normal;color-interpolation:sRGB;color-interpolation-filters:linearRGB;solid-color:#000000;solid-opacity:1;vector-effect:none;fill:url(#Black);fill-opacity:1;fill-rule:nonzero;stroke:none;stroke-width:0.66145831;stroke-linecap:butt;stroke-linejoin:bevel;stroke-miterlimit:4;stroke-dasharray:none;stroke-dashoffset:0;stroke-opacity:1;color-rendering:auto;image-rendering:auto;shape-rendering:auto;text-rendering:auto;enable-background:accumulate" />
      <path
         inkscape:connector-curvature="0"
         id="outlines-c_o_lorful"
         d="m 23.226562,282.45508 c -1.925389,0 -3.483154,0.53794 -4.601562,1.6289 -1.110814,1.09025 -1.662109,2.60273 -1.662109,4.46094 0,1.84542 0.547337,3.35497 1.65039,4.45117 h 0.002 c 1.112693,1.09209 2.673492,1.62891 4.611328,1.62891 1.937837,0 3.495071,-0.53616 4.601563,-1.62891 1.109688,-1.09598 1.660156,-2.60535 1.660156,-4.45117 0,-1.84541 -0.547337,-3.35302 -1.65039,-4.44922 -1.100492,-1.09977 -2.661356,-1.64062 -4.611329,-1.64062 z m 0,0.66211 c 1.830672,0 3.187216,0.48994 4.144532,1.44726 h 0.002 c 0.967679,0.96167 1.455078,2.26321 1.455078,3.98047 0,1.71687 -0.490939,3.01859 -1.464844,3.98047 -0.96424,0.95227 -2.318942,1.43945 -4.136719,1.43945 -1.816591,0 -3.175709,-0.4858 -4.146484,-1.4375 l -0.002,-0.002 C 18.111729,291.56391 17.625,290.26105 17.625,288.54492 c 0,-1.73019 0.490111,-3.03351 1.462891,-3.98828 0.978048,-0.95405 2.33417,-1.43945 4.138671,-1.43945 z m 0,1.75976 c -0.364083,0 -0.699779,0.0485 -1.003906,0.15235 l -0.0039,0.002 c -0.324554,0.1136 -0.61589,0.33204 -0.880859,0.63281 l -0.0039,0.006 c -0.25216,0.29801 -0.43849,0.68423 -0.576172,1.15235 l -0.002,0.004 c -0.133833,0.47898 -0.195312,1.05557 -0.195312,1.73828 0,0.61201 0.05599,1.15366 0.173828,1.625 0.117916,0.46473 0.294924,0.85737 0.544922,1.16797 l 0.0039,0.002 c 0.237111,0.28897 0.528855,0.50967 0.863281,0.64648 l 0.002,0.002 c 0.334097,0.13365 0.706048,0.19727 1.107421,0.19727 0.351109,0 0.689753,-0.0594 1.009766,-0.17578 h 0.0039 c 0.344115,-0.13 0.641704,-0.35104 0.875,-0.64453 0.253802,-0.31282 0.439061,-0.68559 0.558594,-1.10547 0.130611,-0.44263 0.1875,-1.0082 0.1875,-1.71485 0,-0.65669 -0.05725,-1.21721 -0.183594,-1.6875 -0.124046,-0.46172 -0.302283,-0.84663 -0.544922,-1.15039 -0.237967,-0.30369 -0.536788,-0.53334 -0.882812,-0.66406 -0.328785,-0.1242 -0.682291,-0.18555 -1.052735,-0.18555 z m 0,0.66211 c 0.298365,0 0.568369,0.0481 0.81836,0.14258 0.231406,0.0874 0.426445,0.23126 0.599609,0.45313 l 0.002,0.004 c 0.168414,0.21052 0.31263,0.51079 0.419922,0.91016 0.105165,0.39145 0.164063,0.89901 0.164063,1.51562 0,0.66956 -0.05926,1.18541 -0.160157,1.52735 l -0.002,0.004 c -0.09875,0.34852 -0.245367,0.63655 -0.439453,0.875 l -0.002,0.002 c -0.16445,0.20688 -0.355108,0.34681 -0.587891,0.43554 -5.95e-4,2.2e-4 -0.0014,-2.1e-4 -0.002,0 -0.245368,0.089 -0.502812,0.13477 -0.78125,0.13477 -0.331743,0 -0.616649,-0.0525 -0.861328,-0.15039 -0.2304,-0.0947 -0.427731,-0.24127 -0.601562,-0.45313 -0.173421,-0.21652 -0.315719,-0.51682 -0.416016,-0.91211 -0.100812,-0.40325 -0.154297,-0.89162 -0.154297,-1.46289 0,-0.64045 0.0599,-1.16138 0.169922,-1.55664 0.119345,-0.40577 0.273397,-0.70461 0.445313,-0.9082 2.98e-4,-3.5e-4 -2.99e-4,-0.002 0,-0.002 0.208498,-0.23539 0.40972,-0.37513 0.597656,-0.44141 0.223202,-0.0762 0.486291,-0.11719 0.791015,-0.11719 z"
         style="color:#000000;font-style:normal;font-variant:normal;font-weight:bold;font-stretch:normal;font-size:19.75555611px;line-height:1.25;font-family:sans-serif;-inkscape-font-specification:'sans-serif Bold';font-variant-ligatures:normal;font-variant-position:normal;font-variant-caps:normal;font-variant-numeric:normal;font-variant-alternates:normal;font-feature-settings:normal;text-indent:0;text-align:start;text-decoration:none;text-decoration-line:none;text-decoration-style:solid;text-decoration-color:#000000;letter-spacing:0px;word-spacing:0px;text-transform:none;writing-mode:lr-tb;direction:ltr;text-orientation:mixed;dominant-baseline:auto;baseline-shift:baseline;text-anchor:start;white-space:normal;shape-padding:0;clip-rule:nonzero;display:inline;overflow:visible;visibility:visible;opacity:1;isolation:auto;mix-blend-mode:normal;color-interpolation:sRGB;color-interpolation-filters:linearRGB;solid-color:#000000;solid-opacity:1;vector-effect:none;fill:url(#Black);fill-opacity:1;fill-rule:nonzero;stroke:none;stroke-width:0.66145831;stroke-linecap:butt;stroke-linejoin:bevel;stroke-miterlimit:4;stroke-dasharray:none;stroke-dashoffset:0;stroke-opacity:1;color-rendering:auto;image-rendering:auto;shape-rendering:auto;text-rendering:auto;enable-background:accumulate" />
      <g
         id="outlines-co_l_orful">
        <path
           style="color:#000000;font-style:normal;font-variant:normal;font-weight:bold;font-stretch:normal;font-size:19.75555611px;line-height:1.25;font-family:sans-serif;-inkscape-font-specification:'sans-serif Bold';font-variant-ligatures:normal;font-variant-position:normal;font-variant-caps:normal;font-variant-numeric:normal;font-variant-alternates:normal;font-feature-settings:normal;text-indent:0;text-align:start;text-decoration:none;text-decoration-line:none;text-decoration-style:solid;text-decoration-color:#000000;letter-spacing:0px;word-spacing:0px;text-transform:none;writing-mode:lr-tb;direction:ltr;text-orientation:mixed;dominant-baseline:auto;baseline-shift:baseline;text-anchor:start;white-space:normal;shape-padding:0;clip-rule:nonzero;display:inline;overflow:visible;visibility:visible;opacity:1;isolation:auto;mix-blend-mode:normal;color-interpolation:sRGB;color-interpolation-filters:linearRGB;solid-color:#000000;solid-opacity:1;vector-effect:none;fill:url(#White);fill-opacity:1;fill-rule:nonzero;stroke:none;stroke-width:2.5;stroke-linecap:butt;stroke-linejoin:bevel;stroke-miterlimit:4;stroke-dasharray:none;stroke-dashoffset:0;stroke-opacity:1;color-rendering:auto;image-rendering:auto;shape-rendering:auto;text-rendering:auto;enable-background:accumulate"
           d="m 132.17188,103.13867 -2.50196,2.03516 v 23.57812 H 119.04688 V 113.8125 l -2.50196,2.03516 V 130 l 1.24805,1.24609 h 13.125 L 132.17188,130 Z"
           transform="matrix(0.26458333,0,0,0.26458333,0,259.56143)"
           id="outlines-co_l_orful-white"
           inkscape:connector-curvature="0" />
        <path
           style="color:#000000;font-style:normal;font-variant:normal;font-weight:bold;font-stretch:normal;font-size:19.75555611px;line-height:1.25;font-family:sans-serif;-inkscape-font-specification:'sans-serif Bold';font-variant-ligatures:normal;font-variant-position:normal;font-variant-caps:normal;font-variant-numeric:normal;font-variant-alternates:normal;font-feature-settings:normal;text-indent:0;text-align:start;text-decoration:none;text-decoration-line:none;text-decoration-style:solid;text-decoration-color:#000000;letter-spacing:0px;word-spacing:0px;text-transform:none;writing-mode:lr-tb;direction:ltr;text-orientation:mixed;dominant-baseline:auto;baseline-shift:baseline;text-anchor:start;white-space:normal;shape-padding:0;clip-rule:nonzero;display:inline;overflow:visible;visibility:visible;opacity:1;isolation:auto;mix-blend-mode:normal;color-interpolation:sRGB;color-interpolation-filters:linearRGB;solid-color:#000000;solid-opacity:1;vector-effect:none;fill:url(#Black);fill-opacity:1;fill-rule:nonzero;stroke:none;stroke-width:2.5;stroke-linecap:butt;stroke-linejoin:bevel;stroke-miterlimit:4;stroke-dasharray:none;stroke-dashoffset:0;stroke-opacity:1;color-rendering:auto;image-rendering:auto;shape-rendering:auto;text-rendering:auto;enable-background:accumulate"
           d="m 117.79297,72.021484 -1.24805,1.248047 v 42.578129 l 2.50196,-2.03516 V 74.517578 h 10.62304 v 30.656252 l 2.50196,-2.03516 V 73.269531 l -1.25391,-1.248047 z"
           transform="matrix(0.26458333,0,0,0.26458333,0,259.56143)"
           id="outlines-co_l_orful-black"
           inkscape:connector-curvature="0" />
      </g>
      <path
         inkscape:connector-curvature="0"
         id="outlines-col_o_rful"
         d="m 42.609375,282.45508 c -1.925388,0 -3.481202,0.53794 -4.599609,1.6289 -1.110814,1.09025 -1.66211,2.60273 -1.66211,4.46094 0,1.84542 0.547337,3.35497 1.650391,4.45117 H 38 c 1.112692,1.09209 2.671539,1.62891 4.609375,1.62891 1.937837,0 3.497024,-0.53616 4.603516,-1.62891 1.109688,-1.09598 1.660156,-2.60535 1.660156,-4.45117 0,-1.84541 -0.547338,-3.35302 -1.650391,-4.44922 -1.100555,-1.10056 -2.662616,-1.64062 -4.613281,-1.64062 z m 0,0.66211 c 1.830672,0 3.189169,0.48994 4.146484,1.44726 0.967679,0.96167 1.457032,2.26321 1.457032,3.98047 0,1.71687 -0.490939,3.01859 -1.464844,3.98047 -0.96424,0.95227 -2.320894,1.43945 -4.138672,1.43945 -1.816592,0 -3.173757,-0.4858 -4.144531,-1.4375 l -0.002,-0.002 c -0.966396,-0.96148 -1.455079,-2.26434 -1.455079,-3.98047 10e-7,-1.73019 0.492065,-3.03351 1.464844,-3.98828 0.977959,-0.95329 2.332947,-1.43945 4.136719,-1.43945 z m 0,1.75976 c -0.364083,0 -0.699779,0.0485 -1.003906,0.15235 l -0.002,0.002 c -0.324554,0.1136 -0.61589,0.33204 -0.88086,0.63281 l -0.0039,0.006 c -0.252161,0.29801 -0.438491,0.68423 -0.576172,1.15235 l -0.002,0.004 c -0.133833,0.47898 -0.195313,1.05557 -0.195313,1.73828 10e-7,0.61201 0.05599,1.15366 0.173829,1.625 0.117916,0.46473 0.294923,0.85737 0.544921,1.16797 l 0.002,0.002 c 0.237111,0.28897 0.528855,0.50967 0.863281,0.64648 l 0.0039,0.002 c 0.334097,0.13365 0.704096,0.19727 1.105469,0.19727 0.351109,0 0.689752,-0.0594 1.009766,-0.17578 h 0.0039 c 0.342388,-0.12935 0.640279,-0.34933 0.873047,-0.64063 3.57e-4,-4.4e-4 -3.57e-4,-0.002 0,-0.002 0.254629,-0.31323 0.442714,-0.68664 0.5625,-1.10742 0.130611,-0.44263 0.1875,-1.0082 0.1875,-1.71485 0,-0.65669 -0.0592,-1.21721 -0.185547,-1.6875 -0.123793,-0.46078 -0.299147,-0.84496 -0.541016,-1.14843 -0.23841,-0.30547 -0.539349,-0.53479 -0.886719,-0.66602 -0.328784,-0.1242 -0.68229,-0.18555 -1.052734,-0.18555 z m 0,0.66211 c 0.298364,0 0.570321,0.0481 0.820313,0.14258 0.231405,0.0874 0.424491,0.23126 0.597656,0.45313 l 0.0039,0.004 c 0.168413,0.21052 0.312629,0.51079 0.419922,0.91016 0.105165,0.39145 0.162109,0.89901 0.162109,1.51562 0,0.66956 -0.05926,1.18541 -0.160156,1.52735 v 0.004 c -0.09875,0.34852 -0.245367,0.63655 -0.439453,0.875 l -0.0039,0.002 c -0.164448,0.20688 -0.353159,0.34681 -0.585938,0.43554 -5.94e-4,2.2e-4 -0.0014,-2.1e-4 -0.002,0 -0.245371,0.089 -0.504764,0.13477 -0.783203,0.13477 -0.331013,0 -0.615059,-0.0529 -0.859375,-0.15039 h -0.002 c -0.229781,-0.0947 -0.426138,-0.24171 -0.59961,-0.45313 -0.173421,-0.21652 -0.317671,-0.51682 -0.417968,-0.91211 h 0.002 c -0.100813,-0.40325 -0.154297,-0.89162 -0.154297,-1.46289 0,-0.64045 0.0599,-1.16138 0.169922,-1.55664 0.119345,-0.40577 0.273396,-0.70461 0.445312,-0.9082 2.98e-4,-3.5e-4 -2.98e-4,-0.002 0,-0.002 0.208498,-0.23539 0.409722,-0.37513 0.597656,-0.44141 0.223203,-0.0762 0.484338,-0.11719 0.789063,-0.11719 z"
         style="color:#000000;font-style:normal;font-variant:normal;font-weight:bold;font-stretch:normal;font-size:19.75555611px;line-height:1.25;font-family:sans-serif;-inkscape-font-specification:'sans-serif Bold';font-variant-ligatures:normal;font-variant-position:normal;font-variant-caps:normal;font-variant-numeric:normal;font-variant-alternates:normal;font-feature-settings:normal;text-indent:0;text-align:start;text-decoration:none;text-decoration-line:none;text-decoration-style:solid;text-decoration-color:#000000;letter-spacing:0px;word-spacing:0px;text-transform:none;writing-mode:lr-tb;direction:ltr;text-orientation:mixed;dominant-baseline:auto;baseline-shift:baseline;text-anchor:start;white-space:normal;shape-padding:0;clip-rule:nonzero;display:inline;overflow:visible;visibility:visible;opacity:1;isolation:auto;mix-blend-mode:normal;color-interpolation:sRGB;color-interpolation-filters:linearRGB;solid-color:#000000;solid-opacity:1;vector-effect:none;fill:url(#White);fill-opacity:1;fill-rule:nonzero;stroke:none;stroke-width:0.66145831;stroke-linecap:butt;stroke-linejoin:bevel;stroke-miterlimit:4;stroke-dasharray:none;stroke-dashoffset:0;stroke-opacity:1;color-rendering:auto;image-rendering:auto;shape-rendering:auto;text-rendering:auto;enable-background:accumulate" />
      <path
         inkscape:connector-curvature="0"
         id="outlines-colo_r_ful"
         d="m 58.082031,282.75586 c -0.525239,0 -1.084381,0.11888 -1.677734,0.34766 -0.462489,0.17343 -1.006324,0.59445 -1.550781,1.00781 V 283.125 l -0.330078,-0.33203 h -3.472657 l -0.330078,0.33203 v 10.83203 l 0.330078,0.33008 h 3.472657 l 0.330078,-0.33008 v -7 c 0.333246,-0.10734 0.66128,-0.20671 0.951172,-0.25586 0.356039,-0.0604 0.775006,-0.0918 1.255859,-0.0918 0.205674,0 0.472662,0.0118 0.794922,0.0371 0.314691,0.0247 0.53847,0.0675 0.630859,0.0996 l 0.107422,0.0176 h 0.308594 l 0.332031,-0.33008 V 283.125 l -0.294922,-0.32812 c -0.125237,-0.0136 -0.267981,-0.0243 -0.427734,-0.0313 -0.1581,-0.007 -0.301487,-0.01 -0.429688,-0.01 z m 0,0.66016 c 0.116171,0 0.251763,0.003 0.402344,0.01 0.03418,0.001 0.05589,0.004 0.08789,0.006 v 2.66797 c -0.18428,-0.0501 -0.380779,-0.089 -0.666016,-0.11133 -0.333687,-0.0262 -0.61408,-0.041 -0.845703,-0.041 -0.509498,0 -0.964388,0.0333 -1.367188,0.10156 -0.401743,0.0681 -0.827294,0.18229 -1.279297,0.34179 l -0.220703,0.3125 v 6.92383 h -2.8125 v -10.17187 h 2.8125 v 1.26172 l 0.544922,0.25 c 0.748066,-0.6412 1.391526,-1.05405 1.898438,-1.24414 h 0.002 c 0.536844,-0.20742 1.018129,-0.30664 1.443359,-0.30664 z"
         style="color:#000000;font-style:normal;font-variant:normal;font-weight:bold;font-stretch:normal;font-size:19.75555611px;line-height:1.25;font-family:sans-serif;-inkscape-font-specification:'sans-serif Bold';font-variant-ligatures:normal;font-variant-position:normal;font-variant-caps:normal;font-variant-numeric:normal;font-variant-alternates:normal;font-feature-settings:normal;text-indent:0;text-align:start;text-decoration:none;text-decoration-line:none;text-decoration-style:solid;text-decoration-color:#000000;letter-spacing:0px;word-spacing:0px;text-transform:none;writing-mode:lr-tb;direction:ltr;text-orientation:mixed;dominant-baseline:auto;baseline-shift:baseline;text-anchor:start;white-space:normal;shape-padding:0;clip-rule:nonzero;display:inline;overflow:visible;visibility:visible;opacity:1;isolation:auto;mix-blend-mode:normal;color-interpolation:sRGB;color-interpolation-filters:linearRGB;solid-color:#000000;solid-opacity:1;vector-effect:none;fill:url(#White);fill-opacity:1;fill-rule:nonzero;stroke:none;stroke-width:0.66145831;stroke-linecap:butt;stroke-linejoin:bevel;stroke-miterlimit:4;stroke-dasharray:none;stroke-dashoffset:0;stroke-opacity:1;color-rendering:auto;image-rendering:auto;shape-rendering:auto;text-rendering:auto;enable-background:accumulate" />
      <path
         inkscape:connector-curvature="0"
         id="outlines-color_f_ul"
         d="m 66.705078,278.51953 c -1.478796,0 -2.641266,0.34573 -3.429687,1.08399 -0.773943,0.73134 -1.143725,1.82384 -1.150391,3.18945 h -1.160156 l -0.330078,0.33203 v 2.35352 l 0.330078,0.33007 h 1.154297 v 8.14844 l 0.332031,0.33008 h 3.472656 l 0.330078,-0.33008 v -8.14844 h 2.234375 l 0.332031,-0.33007 V 283.125 l -0.332031,-0.33203 h -2.294922 c 0.03928,-0.43686 0.104071,-0.83432 0.205079,-0.93945 4.4e-5,-5e-5 0.0019,4e-5 0.002,0 0.136204,-0.13543 0.511225,-0.26954 1.152343,-0.26954 0.260412,0 0.498324,0.0269 0.714844,0.0781 h 0.002 c 0.246992,0.057 0.445131,0.1082 0.589844,0.15039 l 0.0918,0.0117 h 0.261719 l 0.330078,-0.33008 v -2.44922 l -0.271485,-0.32617 c -0.33451,-0.0602 -0.713742,-0.10589 -1.138672,-0.13867 h -0.0039 c -0.429449,-0.0395 -0.902517,-0.0606 -1.423828,-0.0606 z m 0,0.66211 c 0.506196,0 0.961553,0.0192 1.367188,0.0566 h 0.0059 c 0.305328,0.0235 0.553842,0.0607 0.802734,0.0977 v 1.79883 c -0.137481,-0.0371 -0.273863,-0.074 -0.460937,-0.11719 h -0.002 c -0.271695,-0.0642 -0.560412,-0.0957 -0.865235,-0.0957 -0.721191,0 -1.26995,0.10979 -1.623046,0.46289 l -0.002,0.004 c -0.348202,0.35762 -0.451172,0.91006 -0.451172,1.64844 v 0.0879 l 0.330079,0.33008 h 2.351562 v 1.6914 h -2.234375 l -0.332031,0.33204 v 8.14843 H 62.78125 v -8.14843 l -0.330078,-0.33204 h -1.15625 v -1.6914 h 1.15625 L 62.78125,283.125 v -0.29883 c 0,-1.26642 0.326303,-2.15345 0.947266,-2.74023 0.626365,-0.58651 1.600064,-0.9043 2.976562,-0.9043 z"
         style="color:#000000;font-style:normal;font-variant:normal;font-weight:bold;font-stretch:normal;font-size:19.75555611px;line-height:1.25;font-family:sans-serif;-inkscape-font-specification:'sans-serif Bold';font-variant-ligatures:normal;font-variant-position:normal;font-variant-caps:normal;font-variant-numeric:normal;font-variant-alternates:normal;font-feature-settings:normal;text-indent:0;text-align:start;text-decoration:none;text-decoration-line:none;text-decoration-style:solid;text-decoration-color:#000000;letter-spacing:0px;word-spacing:0px;text-transform:none;writing-mode:lr-tb;direction:ltr;text-orientation:mixed;dominant-baseline:auto;baseline-shift:baseline;text-anchor:start;white-space:normal;shape-padding:0;clip-rule:nonzero;display:inline;overflow:visible;visibility:visible;opacity:1;isolation:auto;mix-blend-mode:normal;color-interpolation:sRGB;color-interpolation-filters:linearRGB;solid-color:#000000;solid-opacity:1;vector-effect:none;fill:url(#White);fill-opacity:1;fill-rule:nonzero;stroke:none;stroke-width:0.66145831;stroke-linecap:butt;stroke-linejoin:bevel;stroke-miterlimit:4;stroke-dasharray:none;stroke-dashoffset:0;stroke-opacity:1;color-rendering:auto;image-rendering:auto;shape-rendering:auto;text-rendering:auto;enable-background:accumulate" />
      <path
         inkscape:connector-curvature="0"
         id="outlines-colorf_u_l"
         d="m 70.587891,282.79297 -0.330079,0.33203 v 7.05078 c 0,1.3968 0.336302,2.50686 1.052735,3.27344 l 0.002,0.002 c 0.719079,0.7618 1.748255,1.13672 3.007812,1.13672 0.776935,0 1.463811,-0.13239 2.050782,-0.4082 l 0.0039,-0.002 c 0.397666,-0.19164 0.846436,-0.51178 1.291016,-0.81835 v 0.59765 l 0.330078,0.33008 h 3.472656 l 0.330078,-0.33008 V 283.125 l -0.330078,-0.33203 h -3.472656 l -0.330078,0.33203 v 7.46875 c -0.263891,0.15278 -0.530508,0.29058 -0.808594,0.375 -0.336042,0.10201 -0.631643,0.15039 -0.886719,0.15039 -0.415692,0 -0.72277,-0.0562 -0.908203,-0.13672 h -0.002 c -0.180672,-0.0811 -0.298251,-0.19306 -0.388672,-0.36914 l -0.002,-0.006 c -0.102006,-0.18872 -0.177629,-0.44629 -0.212891,-0.77539 -0.03064,-0.35159 -0.04687,-0.7962 -0.04687,-1.33398 V 283.125 l -0.330078,-0.33203 z m 0.330078,0.66211 h 2.830078 v 5.04297 c 0,0.55311 0.01738,1.01762 0.05078,1.39843 v 0.006 c 0.04176,0.38977 0.134839,0.72909 0.289063,1.01563 0.153858,0.2975 0.399131,0.53306 0.705078,0.66992 h 0.0039 c 0.316297,0.13788 0.702938,0.19141 1.173828,0.19141 0.336562,0 0.695865,-0.0611 1.080078,-0.17774 0.389821,-0.11833 0.764985,-0.29229 1.123047,-0.51953 l 0.152344,-0.2793 v -7.34765 h 2.8125 v 10.17187 h -2.8125 v -0.86523 l -0.53125,-0.26367 c -0.629404,0.47835 -1.198822,0.83782 -1.705078,1.08203 -0.480549,0.2258 -1.067371,0.3457 -1.769532,0.3457 -1.132717,0 -1.947391,-0.31528 -2.527343,-0.92969 -0.569033,-0.60962 -0.875,-1.52984 -0.875,-2.82031 z"
         style="color:#000000;font-style:normal;font-variant:normal;font-weight:bold;font-stretch:normal;font-size:19.75555611px;line-height:1.25;font-family:sans-serif;-inkscape-font-specification:'sans-serif Bold';font-variant-ligatures:normal;font-variant-position:normal;font-variant-caps:normal;font-variant-numeric:normal;font-variant-alternates:normal;font-feature-settings:normal;text-indent:0;text-align:start;text-decoration:none;text-decoration-line:none;text-decoration-style:solid;text-decoration-color:#000000;letter-spacing:0px;word-spacing:0px;text-transform:none;writing-mode:lr-tb;direction:ltr;text-orientation:mixed;dominant-baseline:auto;baseline-shift:baseline;text-anchor:start;white-space:normal;shape-padding:0;clip-rule:nonzero;display:inline;overflow:visible;visibility:visible;opacity:1;isolation:auto;mix-blend-mode:normal;color-interpolation:sRGB;color-interpolation-filters:linearRGB;solid-color:#000000;solid-opacity:1;vector-effect:none;fill:url(#White);fill-opacity:1;fill-rule:nonzero;stroke:none;stroke-width:0.66145831;stroke-linecap:butt;stroke-linejoin:bevel;stroke-miterlimit:4;stroke-dasharray:none;stroke-dashoffset:0;stroke-opacity:1;color-rendering:auto;image-rendering:auto;shape-rendering:auto;text-rendering:auto;enable-background:accumulate" />
      <path
         inkscape:connector-curvature="0"
         id="outlines-colorfu_l_"
         d="m 84.457031,278.61719 -0.330078,0.33008 v 15.00976 l 0.330078,0.33008 h 3.472657 l 0.332031,-0.33008 v -15.00976 l -0.332031,-0.33008 z m 0.332031,0.66015 h 2.810547 v 14.34961 h -2.810547 z"
         style="color:#000000;font-style:normal;font-variant:normal;font-weight:bold;font-stretch:normal;font-size:19.75555611px;line-height:1.25;font-family:sans-serif;-inkscape-font-specification:'sans-serif Bold';font-variant-ligatures:normal;font-variant-position:normal;font-variant-caps:normal;font-variant-numeric:normal;font-variant-alternates:normal;font-feature-settings:normal;text-indent:0;text-align:start;text-decoration:none;text-decoration-line:none;text-decoration-style:solid;text-decoration-color:#000000;letter-spacing:0px;word-spacing:0px;text-transform:none;writing-mode:lr-tb;direction:ltr;text-orientation:mixed;dominant-baseline:auto;baseline-shift:baseline;text-anchor:start;white-space:normal;shape-padding:0;clip-rule:nonzero;display:inline;overflow:visible;visibility:visible;opacity:1;isolation:auto;mix-blend-mode:normal;color-interpolation:sRGB;color-interpolation-filters:linearRGB;solid-color:#000000;solid-opacity:1;vector-effect:none;fill:url(#White);fill-opacity:1;fill-rule:nonzero;stroke:none;stroke-width:0.66145831;stroke-linecap:butt;stroke-linejoin:bevel;stroke-miterlimit:4;stroke-dasharray:none;stroke-dashoffset:0;stroke-opacity:1;color-rendering:auto;image-rendering:auto;shape-rendering:auto;text-rendering:auto;enable-background:accumulate" />
    </g>
  </g>
</svg>
